<?xml version="1.0" encoding="utf-8"?>
<!-- Generator: Adobe Illustrator 26.0.3, SVG Export Plug-In . SVG Version: 6.00 Build 0)  -->
<svg version="1.1" id="Calque_1" xmlns="http://www.w3.org/2000/svg" xmlns:xlink="http://www.w3.org/1999/xlink" x="0px" y="0px"
	 width="1419px" height="895px" viewBox="0 0 1419 895" enable-background="new 0 0 1419 895" xml:space="preserve">
<g id="GraphNav">
	<rect x="2.55" y="3.34" fill="#666666" stroke="#FFFFFF" stroke-width="4" stroke-miterlimit="10" width="221.7" height="197.6"/>
	<rect x="2.55" y="3.34" fill="none" stroke="#FFFFFF" stroke-miterlimit="10" width="221.7" height="36.4"/>
	<text transform="matrix(1 0 0 1 15.6387 26.6473)" fill="#FFFFFF" font-family="'MyriadPro-Regular'" font-size="15px">Navigation Graph</text>
	<text transform="matrix(1 0 0 1 35.7067 67.6306)" fill="#FFFFFF" font-family="'MyriadPro-Regular'" font-size="15px">Node</text>
	
		<circle id="node" opacity="0.8" fill="#CCCCCC" stroke="#FFFFFF" stroke-miterlimit="10" enable-background="new    " cx="21.25" cy="63.04" r="5.5"/>
	<text transform="matrix(1 0 0 1 35.7072 89.2023)" fill="#FFFFFF" font-family="'MyriadPro-Regular'" font-size="15px">Start Node</text>
	<text transform="matrix(1 0 0 1 35.7065 110.774)" fill="#FFFFFF" font-family="'MyriadPro-Regular'" font-size="15px">End Node</text>
	<text transform="matrix(1 0 0 1 35.7064 132.3456)" fill="#FFFFFF" font-family="'MyriadPro-Regular'" font-size="15px">Mandatory Node</text>
	
		<text id="Forced" transform="matrix(1 0 0 1 35.7064 153.9172)" fill="#FFFFFF" font-family="'MyriadPro-Regular'" font-size="15px">Forced Node</text>
	
		<circle id="node_forced" opacity="0.8" fill="#29ABE2" stroke="#000000" stroke-width="3" stroke-miterlimit="10" enable-background="new    " cx="21.25" cy="149.34" r="5.2"/>
	<g id="node_mandatory">
		
			<circle id="GraphNode_00000083795221278490551850000002762137817906150278_" opacity="0.8" fill="#29ABE2" stroke="#FFFFFF" stroke-miterlimit="10" enable-background="new    " cx="21.25" cy="127.74" r="5.2"/>
		<g id="waypoint_00000149381495119761874650000010747891893097652116_" display="none">
			
				<line display="inline" fill="none" stroke="#000000" stroke-width="2" stroke-miterlimit="10" x1="17.45" y1="123.94" x2="25.65" y2="132.14"/>
			
				<line display="inline" fill="none" stroke="#000000" stroke-width="2" stroke-miterlimit="10" x1="17.45" y1="132.14" x2="25.65" y2="123.94"/>
		</g>
		
			<circle opacity="0.8" fill="none" stroke="#FF30FF" stroke-width="2" stroke-linecap="round" stroke-miterlimit="10" enable-background="new    " cx="21.25" cy="127.74" r="10.5"/>
	</g>
	<text transform="matrix(1 0 0 1 34.7224 175.3087)" fill="#FFFFFF" font-family="'MyriadPro-Regular'" font-size="15px">Edge</text>
	
		<line opacity="0.8" fill="none" stroke="#FFFFFF" stroke-width="2" stroke-miterlimit="10" enable-background="new    " x1="13.85" y1="170.74" x2="29.25" y2="170.74"/>
	<g id="update_button">
		<path id="rect" fill="#666666" stroke="#35B2FF" stroke-width="2" stroke-miterlimit="10" d="M200.64,190.94h-77.18
			c-5.57,0-10.06-4.2-10.06-9.4v-8.7c0-5.2,4.5-9.4,10.06-9.4h77.18c5.57,0,10.06,4.2,10.06,9.4v8.7
			C210.7,186.64,206.2,190.94,200.64,190.94z"/>
		<text transform="matrix(1 0 0 1 118.0001 181.5342)" fill="#FFFFFF" font-family="'MyriadPro-Regular'" font-size="12px">Update Itinerary</text>
	</g>
	<g id="node_start">
		
			<circle id="node_start2" opacity="0.8" fill="#29ABE2" stroke="#70EE49" stroke-miterlimit="10" enable-background="new    " cx="21.25" cy="84.64" r="5.2"/>
		<polygon fill="#32ED2B" points="25.25,84.64 19.25,81.24 19.25,88.04 		"/>
	</g>
	<g id="node_end">
		
			<circle id="node_endd" opacity="0.8" fill="#29ABE2" stroke="#FF30FF" stroke-miterlimit="10" enable-background="new    " cx="21.25" cy="106.34" r="5.2"/>
		<path fill="#FF30FF" d="M21.95,104.84c1.4,0.6,1.4,0.6,2.6-0.9c0-0.1,0.1,0.1,0.1,0.1c0.1,2.7,0,0,0.1,2.7c0,1.7-0.6,1.6-2.5,0.6
			c-0.8-0.4-1.3-0.9-1.9-1c-0.8-0.1-1.4,1.7-1.6,1.6c-0.1,0-0.1-0.1-0.1-0.2c0-0.5-0.1-1.6-0.2-3
			C19.85,103.54,19.85,103.34,21.95,104.84z"/>
		
			<line fill="none" stroke="#1D1D1B" stroke-width="0.25" stroke-linecap="round" stroke-miterlimit="10" x1="18.45" y1="104.84" x2="18.65" y2="109.74"/>
	</g>
</g>
</svg>
