<?xml version="1.0" encoding="utf-8"?>
<!-- Generator: Adobe Illustrator 26.0.3, SVG Export Plug-In . SVG Version: 6.00 Build 0)  -->
<svg version="1.1" id="Calque_1" xmlns="http://www.w3.org/2000/svg" xmlns:xlink="http://www.w3.org/1999/xlink" x="0px" y="0px"
	 width="1419px" height="895px" viewBox="0 0 1419 895" enable-background="new 0 0 1419 895" xml:space="preserve">
<g id="GraphNav">
	<rect x="2.89" y="3.71" fill="#666666" stroke="#FFFFFF" stroke-width="4" stroke-miterlimit="10" width="424.41" height="64.91"/>
	<rect x="2.66" y="3.71" fill="none" stroke="#FFFFFF" stroke-miterlimit="10" width="424.64" height="36.4"/>
	<text transform="matrix(1 0 0 1 9.052 26.0969)" fill="#FFFFFF" font-family="'Helvetica'" font-size="15px">Navigation Graph</text>
	<text transform="matrix(1 0 0 1 29.3624 56.9673)" fill="#FFFFFF" font-family="'Helvetica'" font-size="15px">Node</text>
	
		<circle id="node" opacity="0.8" fill="#CCCCCC" stroke="#FFFFFF" stroke-miterlimit="10" enable-background="new    " cx="20.88" cy="52.41" r="5.5"/>
	<text transform="matrix(1 0 0 1 92.8182 57.6048)" fill="#FFFFFF" font-family="'Helvetica'" font-size="15px">Start </text>
	<text transform="matrix(1 0 0 1 153.3974 58.19)" fill="#FFFFFF" font-family="'Helvetica'" font-size="15px">End</text>
	<text transform="matrix(1 0 0 1 219.3439 58.1904)" fill="#FFFFFF" font-family="'Helvetica'" font-size="15px">Mandatory</text>
	<text id="Forced" transform="matrix(1 0 0 1 311.8171 57.905)" fill="#FFFFFF" font-family="'Helvetica'" font-size="15px">Forced</text>
	
		<circle id="node_forced" opacity="0.8" fill="#29ABE2" stroke="#000000" stroke-width="3" stroke-miterlimit="10" enable-background="new    " cx="302.89" cy="54.13" r="5.2"/>
	<g id="node_mandatory">
		
			<circle id="GraphNode_00000083795221278490551850000002762137817906150278_" opacity="0.8" fill="#29ABE2" stroke="#FFFFFF" stroke-miterlimit="10" enable-background="new    " cx="207.18" cy="53.36" r="5.2"/>
		
			<circle opacity="0.8" fill="none" stroke="#FF30FF" stroke-width="2" stroke-linecap="round" stroke-miterlimit="10" enable-background="new    " cx="207.18" cy="53.36" r="10.5"/>
	</g>
	<text transform="matrix(1 0 0 1 385.5228 57.9049)" fill="#FFFFFF" font-family="'MyriadPro-Regular'" font-size="15px">Edge</text>
	
		<line opacity="0.8" fill="none" stroke="#FFFFFF" stroke-width="2" stroke-miterlimit="10" enable-background="new    " x1="369.15" y1="53.36" x2="384.55" y2="53.36"/>
	<g id="update_button">
		<path id="update_bg" fill="#666682" stroke="#35B2FF" stroke-width="2" stroke-miterlimit="10" d="M241.85,32.07h-85.79
			c-3.31,0-5.99-2.68-5.99-5.99v-8.34c0-3.31,2.68-5.99,5.99-5.99h85.79c3.31,0,5.99,2.68,5.99,5.99v8.34
			C247.85,29.38,245.16,32.07,241.85,32.07z"/>
		<text transform="matrix(1 0 0 1 156.4286 25.147)" fill="#FFFFFF" font-family="'Helvetica'" font-size="11.0037px">Ask Plannification</text>
	</g>
	<g id="node_start">
		
			<circle id="node_start2" opacity="0.8" fill="#29ABE2" stroke="#70EE49" stroke-miterlimit="10" enable-background="new    " cx="84.85" cy="52.41" r="5.2"/>
		<polygon fill="#32ED2B" points="88.85,52.41 82.85,49.01 82.85,55.81 		"/>
	</g>
	<g id="node_end">
		
			<circle id="node_endd" opacity="0.8" fill="#29ABE2" stroke="#FF30FF" stroke-miterlimit="10" enable-background="new    " cx="146.57" cy="53.36" r="5.2"/>
		<path fill="#FF30FF" d="M147.27,51.86c1.4,0.6,1.4,0.6,2.6-0.9c0-0.1,0.1,0.1,0.1,0.1c0.1,2.7,0,0,0.1,2.7c0,1.7-0.6,1.6-2.5,0.6
			c-0.8-0.4-1.3-0.9-1.9-1c-0.8-0.1-1.4,1.7-1.6,1.6c-0.1,0-0.1-0.1-0.1-0.2c0-0.5-0.1-1.6-0.2-3
			C145.17,50.56,145.17,50.36,147.27,51.86z"/>
		
			<line fill="none" stroke="#1D1D1B" stroke-width="0.25" stroke-linecap="round" stroke-miterlimit="10" x1="143.77" y1="51.86" x2="143.97" y2="56.76"/>
	</g>
</g>
</svg>
