<?xml version="1.0" encoding="utf-8"?>
<!-- Generator: Adobe Illustrator 26.0.3, SVG Export Plug-In . SVG Version: 6.00 Build 0)  -->
<svg version="1.1" id="Calque_1" xmlns="http://www.w3.org/2000/svg" xmlns:xlink="http://www.w3.org/1999/xlink" x="0px" y="0px"
	 width="1419px" height="895px" viewBox="0 0 1419 895" enable-background="new 0 0 1419 895" xml:space="preserve">
<g id="GraphNav">
	
		<rect x="1.17" y="1.26" fill="#444444" stroke="#FFFFFF" stroke-width="2" stroke-miterlimit="10" width="424.41" height="102.29"/>
	<rect x="1.06" y="1.26" fill="none" stroke="#FFFFFF" stroke-miterlimit="10" width="424.64" height="32.03"/>
	<text transform="matrix(1 0 0 1 7.452 23.6519)" fill="#FFFFFF" font-family="'Helvetica'" font-size="15px">Navigation Graph</text>
	<text transform="matrix(1 0 0 1 27.7624 54.5223)" fill="#FFFFFF" font-family="'Helvetica'" font-size="15px">Node</text>
	
		<circle id="node" opacity="0.8" fill="#CCCCCC" stroke="#FFFFFF" stroke-miterlimit="10" enable-background="new    " cx="19.28" cy="49.97" r="5.5"/>
	<text transform="matrix(1 0 0 1 91.2182 55.1598)" fill="#FFFFFF" font-family="'Helvetica'" font-size="15px">Start </text>
	<text transform="matrix(1 0 0 1 151.7974 55.745)" fill="#FFFFFF" font-family="'Helvetica'" font-size="15px">End</text>
	<text transform="matrix(1 0 0 1 217.7439 55.7454)" fill="#FFFFFF" font-family="'Helvetica'" font-size="15px">Mandatory</text>
	<text id="Forced" transform="matrix(1 0 0 1 310.2171 55.46)" fill="#FFFFFF" font-family="'Helvetica'" font-size="15px">Forced</text>
	
		<circle id="node_forced" opacity="0.8" fill="#29ABE2" stroke="#000000" stroke-width="3" stroke-miterlimit="10" enable-background="new    " cx="301.29" cy="51.69" r="5.2"/>
	<g id="node_mandatory">
		
			<circle id="GraphNode_00000083795221278490551850000002762137817906150278_" opacity="0.8" fill="#29ABE2" stroke="#FFFFFF" stroke-miterlimit="10" enable-background="new    " cx="205.58" cy="50.92" r="5.2"/>
		
			<circle opacity="0.8" fill="none" stroke="#FF30FF" stroke-width="2" stroke-linecap="round" stroke-miterlimit="10" enable-background="new    " cx="205.58" cy="50.92" r="10.5"/>
	</g>
	<text transform="matrix(1 0 0 1 383.9228 55.46)" fill="#FFFFFF" font-family="'Helvetica'" font-size="15px">Edge</text>
	
		<line opacity="0.8" fill="none" stroke="#FFFFFF" stroke-width="2" stroke-miterlimit="10" enable-background="new    " x1="367.55" y1="50.92" x2="382.95" y2="50.92"/>
	<g id="update_button">
		<polygon id="update_bg" fill="#666682" stroke="#FFFFFF" stroke-width="2" stroke-miterlimit="10" points="1.17,67.33 
			216.08,67.33 425.58,67.33 425.58,111.16 218.85,121.05 1.17,111.16 		"/>
		<text transform="matrix(1 0 0 1 155.8596 97.0412)" fill="#FFFFFF" font-family="'Helvetica'" font-size="14.3193px">Ask Plannification</text>
	</g>
	<g id="update_graph_button">
		<path id="update_graph_bg" fill="#666682" stroke="#35B2FF" stroke-width="2" stroke-miterlimit="10" d="M410.44,27.11h-85.79
			c-3.31,0-5.99-2.68-5.99-5.99v-8.34c0-3.31,2.68-5.99,5.99-5.99h85.79c3.31,0,5.99,2.68,5.99,5.99v8.34
			C416.44,24.42,413.75,27.11,410.44,27.11z"/>
		<text transform="matrix(1 0 0 1 325.0286 20.184)" fill="#FFFFFF" font-family="'Helvetica'" font-size="11.0037px">Update NavGraph</text>
	</g>
	<g id="node_start">
		
			<circle id="node_start2" opacity="0.8" fill="#29ABE2" stroke="#70EE49" stroke-miterlimit="10" enable-background="new    " cx="83.25" cy="49.97" r="5.2"/>
		<polygon fill="#32ED2B" points="87.25,49.97 81.25,46.56 81.25,53.37 		"/>
	</g>
	<g id="node_end">
		
			<circle id="node_endd" opacity="0.8" fill="#29ABE2" stroke="#FF30FF" stroke-miterlimit="10" enable-background="new    " cx="144.97" cy="50.92" r="5.2"/>
		<path fill="#FF30FF" d="M145.67,49.42c1.4,0.6,1.4,0.6,2.6-0.9c0-0.1,0.1,0.1,0.1,0.1c0.1,2.7,0,0,0.1,2.7c0,1.7-0.6,1.6-2.5,0.6
			c-0.8-0.4-1.3-0.9-1.9-1c-0.8-0.1-1.4,1.7-1.6,1.6c-0.1,0-0.1-0.1-0.1-0.2c0-0.5-0.1-1.6-0.2-3
			C143.57,48.12,143.57,47.92,145.67,49.42z"/>
		
			<line fill="none" stroke="#1D1D1B" stroke-width="0.25" stroke-linecap="round" stroke-miterlimit="10" x1="142.17" y1="49.42" x2="142.37" y2="54.31"/>
	</g>
</g>
</svg>
