<?xml version="1.0" encoding="utf-8"?>
<!-- Generator: Adobe Illustrator 26.0.3, SVG Export Plug-In . SVG Version: 6.00 Build 0)  -->
<svg version="1.1" id="Calque_1" xmlns="http://www.w3.org/2000/svg" xmlns:xlink="http://www.w3.org/1999/xlink" x="0px" y="0px"
	 width="1920px" height="1080px" viewBox="0 0 1920 1080" enable-background="new 0 0 1920 1080" xml:space="preserve">
<g id="show">
	<path id="eye" fill="#CCCCCC" d="M0-11.4c-12.5,0-16.2,10.8-16.3,10.9L-16.5,0l0.2,0.5c0,0.1,3.8,10.9,16.3,10.9S16.2,0.6,16.3,0.5
		L16.5,0l-0.2-0.5C16.2-0.6,12.4-11.4,0-11.4z M0,6.6c-3.6,0-6.5-2.9-6.5-6.5S-3.6-6.4,0-6.4s6.5,2.9,6.5,6.5S3.6,6.6,0,6.6z"/>
	<path id="iris" fill="#CCCCCC" d="M0-3.2c-1.8,0-3.3,1.5-3.3,3.3S-1.8,3.4,0,3.4s3.3-1.5,3.3-3.3S1.7-3.2,0-3.2z"/>
</g>
<path id="hide" fill="#CCCCCC" enable-background="new    " d="M-6.1,0.3l-6-6c-2.4,2.6-3.3,5.2-3.3,5.2L-15.6,0l0.2,0.5
	c0,0.1,3.6,10.4,15.5,10.4c1.5,0,2.8-0.2,4-0.4l-4.3-4.3C-3.4,6.1-6,3.5-6.1,0.3L-6.1,0.3z M0.1-10.9c-2.9,0-5.3,0.6-7.3,1.6
	l-5.8-5.8l-2.2,2.2l28.1,28.1l2.2-2.2L9.8,7.7c4.1-3.1,5.6-7.2,5.6-7.3l0.2-0.5l-0.2-0.5C15.6-0.6,12-10.9,0.1-10.9z M3.1,0.9
	c0.3-1.1,0-2.2-0.8-3.1S0.2-3.3-0.8-3l-2.4-2.4c1-0.6,2.1-0.9,3.2-0.9c3.4,0,6.3,2.8,6.3,6.3c0,1.1-0.3,2.2-0.9,3.2L3.1,0.9L3.1,0.9
	z"/>
</svg>
