<?xml version="1.0" encoding="utf-8"?>
<!-- Generator: Adobe Illustrator 26.0.3, SVG Export Plug-In . SVG Version: 6.00 Build 0)  -->
<svg version="1.1" id="Calque_1" xmlns="http://www.w3.org/2000/svg" xmlns:xlink="http://www.w3.org/1999/xlink" x="0px" y="0px"
	 width="800px" height="800px" viewBox="0 0 800 800" style="enable-background:new 0 0 800 800;" xml:space="preserve">
<style type="text/css">
	.st0{opacity:0.15;enable-background:new    ;}
	.st1{fill:none;stroke:#000000;stroke-width:2;stroke-linecap:round;stroke-linejoin:round;stroke-miterlimit:133.3333;}
</style>
<g id="objectif">
	<path class="st0" d="M4.4-6.6C1.1-6.6,0-5.5,0-5.5v-13c0,0,1.1-1.1,4.4-1.1s5.5,2.2,8.7,2.2s4.4-1.1,4.4-1.1v13
		c0,0-1.1,1.1-4.4,1.1S7.6-6.6,4.4-6.6z"/>
	<path class="st1" d="M0,0v-5.4 M0-5.4v-13c0,0,3.3-2.7,8.7,0s8.7,0,8.7,0v13c0,0-3.3,2.7-8.7,0S0-5.4,0-5.4z"/>
</g>
</svg>
