<?xml version="1.0" encoding="utf-8"?>
<!-- Generator: Adobe Illustrator 26.0.3, SVG Export Plug-In . SVG Version: 6.00 Build 0)  -->
<svg version="1.1" id="Calque_1" xmlns="http://www.w3.org/2000/svg" xmlns:xlink="http://www.w3.org/1999/xlink" x="0px" y="0px"
	 width="1920px" height="1080px" viewBox="0 0 1920 1080" enable-background="new 0 0 1920 1080" xml:space="preserve">
<path id="manual" fill="none" stroke="#FFFFFF" stroke-miterlimit="128" d="M-2.8,3.8V2.4h5.7v1.4 M0.9-1.4v3.8 M-0.9-1.4v3.8
	 M2.8-4.2c0,1.6-1.3,2.8-2.8,2.8s-2.8-1.3-2.8-2.8S-1.6-7.1,0-7.1S2.8-5.8,2.8-4.2z M5.6,7.1H-5.6c-0.5,0-0.9-0.4-0.9-0.9V5.2
	c0-0.5,0.4-0.9,0.9-0.9H5.6c0.5,0,0.9,0.4,0.9,0.9v0.9C6.6,6.6,6.2,7.1,5.6,7.1z"/>
<g id="auto">
	<path fill="#FFFFFF" d="M5.1-0.3H3.1c-0.6,0-1,0.5-1,1v6.1h1V4.3h2.1v2.5h1V0.7C6.2,0.2,5.7-0.3,5.1-0.3z M3.1,3.3V0.7h2.1v2.5H3.1
		z"/>
	<path fill="#FFFFFF" d="M0.1,5.3c-1.9,0-3.7-0.9-4.7-2.5H-2v-1h-4.1v4.1h1V4C-3.8,5.5-2,6.4,0,6.4L0.1,5.3L0.1,5.3L0.1,5.3z"/>
	<path fill="#FFFFFF" d="M2.1-3.4h2.7C3.1-6-0.4-6.7-3-5c-1.6,1-2.5,2.8-2.5,4.7h-1c0-3.7,3-6.6,6.6-6.6c2,0,3.8,0.9,5.1,2.4v-1.9h1
		v4.1H2.1L2.1-3.4L2.1-3.4z"/>
</g>
<path id="wait" fill="#FFFFFF" d="M6.8,0.7c0,0.3-0.3,0.6-0.6,0.6C5.9,1.3,5.7,1,5.7,0.7C5.7-2.4,3.1-5,0-5c-0.3,0-0.6-0.3-0.6-0.6
	S-0.3-6.1,0-6.1C3.7-6,6.8-3,6.8,0.7z M2.3,1.3c0.3,0,0.6-0.3,0.6-0.6c0-0.3-0.3-0.6-0.6-0.6H1C0.9,0,0.7-0.2,0.6-0.3v-1.8
	c0-0.3-0.3-0.6-0.6-0.6s-0.6,0.3-0.6,0.6v1.9c-0.5,0.3-0.7,1-0.4,1.5C-0.7,1.8,0,2,0.6,1.7C0.7,1.6,0.9,1.4,1,1.3L2.3,1.3L2.3,1.3z
	 M-5.7-2.2c-0.3,0-0.6,0.3-0.6,0.6s0.3,0.6,0.6,0.6c0.3,0,0.6-0.3,0.6-0.6S-5.4-2.2-5.7-2.2L-5.7-2.2z M-5.7,0.7
	c0-0.3-0.3-0.6-0.6-0.6c-0.3,0-0.6,0.3-0.6,0.6c0,0.3,0.3,0.6,0.6,0.6C-5.9,1.3-5.7,1-5.7,0.7z M0,6.4c-0.3,0-0.6,0.3-0.6,0.6
	c0,0.3,0.3,0.6,0.6,0.6s0.6-0.3,0.6-0.6C0.6,6.6,0.3,6.4,0,6.4z M-4.4-4.2C-4.7-4.2-5-4-5-3.7s0.3,0.6,0.6,0.6
	c0.3,0,0.6-0.3,0.6-0.6l0,0C-3.8-4-4.1-4.2-4.4-4.2z M-2.4-5.6C-2.7-5.6-3-5.3-3-5s0.3,0.6,0.6,0.6S-1.8-4.7-1.8-5l0,0
	C-1.8-5.4-2.1-5.6-2.4-5.6z M-5.7,2.5c-0.3,0-0.6,0.3-0.6,0.6s0.3,0.6,0.6,0.6c0.3,0,0.6-0.3,0.6-0.6C-5.2,2.8-5.4,2.5-5.7,2.5
	L-5.7,2.5z M-4.4,4.6C-4.7,4.6-5,4.8-5,5.1c0,0.3,0.3,0.6,0.6,0.6c0.3,0,0.6-0.3,0.6-0.6C-3.8,4.8-4.1,4.6-4.4,4.6z M-2.4,5.9
	C-2.7,5.9-3,6.2-3,6.5C-3,6.8-2.7,7-2.4,7s0.6-0.3,0.6-0.6C-1.8,6.2-2.1,5.9-2.4,5.9L-2.4,5.9z M5.7,2.5c-0.3,0-0.6,0.3-0.6,0.6
	s0.3,0.6,0.6,0.6c0.3,0,0.6-0.3,0.6-0.6C6.3,2.8,6.1,2.5,5.7,2.5L5.7,2.5z M4.4,4.6c-0.3,0-0.6,0.3-0.6,0.6c0,0.3,0.3,0.6,0.6,0.6
	C4.7,5.7,5,5.4,5,5.1C5,4.8,4.7,4.6,4.4,4.6z M2.4,5.9c-0.3,0-0.6,0.3-0.6,0.6C1.8,6.8,2.1,7,2.4,7S3,6.8,3,6.5
	C3,6.2,2.7,5.9,2.4,5.9L2.4,5.9z"/>
</svg>
