<?xml version="1.0" encoding="utf-8"?>
<!-- Generator: Adobe Illustrator 25.2.3, SVG Export Plug-In . SVG Version: 6.00 Build 0)  -->
<svg version="1.1"
	 id="menu" xmlns:cc="http://creativecommons.org/ns#" xmlns:dc="http://purl.org/dc/elements/1.1/" xmlns:inkscape="http://www.inkscape.org/namespaces/inkscape" xmlns:rdf="http://www.w3.org/1999/02/22-rdf-syntax-ns#" xmlns:sodipodi="http://sodipodi.sourceforge.net/DTD/sodipodi-0.dtd" xmlns:svg="http://www.w3.org/2000/svg"
	 xmlns="http://www.w3.org/2000/svg" xmlns:xlink="http://www.w3.org/1999/xlink" x="0px" y="0px" viewBox="0 0 200 150"
	 enable-background="new 0 0 200 150" xml:space="preserve">
<path id="bg" sodipodi:nodetypes="ssssssscccss" fill="#2F2F2F" fill-opacity="0.8078" d="M16-40h88.6c3,0,5.3,1.3,5.3,3.1v73.9
	c0,1.7-2.3,3.1-5.3,3.1H16c-3,0-5.3-1.3-5.3-3.1V6.2L0,0.1L10.7-6v-30.9C10.7-38.7,13-40,16-40z"/>
<g id="goto">
	<rect id="rect_goto" x="12" y="15.2" fill="#573612" fill-opacity="0.9608" width="96" height="21.1"/>
	<rect id="rect_press_goto" x="12" y="15.2" fill="#DD9408" fill-opacity="0.9608" width="96" height="21.1"/>·
	
		<text id="lbl_goto" transform="matrix(1 0 0 1 16.2266 30.8564)" fill="#FFFFFF" font-family="'B612-Regular'" font-size="14px">Go to ...</text>
</g>
<g id="message">
	<rect id="rect_message" x="12" y="-11.1" fill="#573612" fill-opacity="0.9608" width="96" height="21.1"/>
	<rect id="rect_press_message" x="12" y="-11.1" fill="#DD9408" fill-opacity="0.9608" width="96" height="21.1"/>
	·
		<text id="lbl_message" transform="matrix(1 0 0 1 14.4999 4.6449)" fill="#FFFFFF" font-family="'B612-Regular'" font-size="14px">New message</text>
</g>
<g id="trap">
	<rect id="rect_trap" x="12" y="-37.5" fill="#573612" fill-opacity="0.9608" width="96" height="21.1"/>
	<rect id="rect_press_trap" x="12" y="-37.5" fill="#DD9408" fill-opacity="0.9608" width="96" height="21.1"/>
	
		<text id="lbl_trap" transform="matrix(1 0 0 1 16.8421 -21.728)" fill="#FFFFFF" font-family="'B612-Regular'" font-size="14px">New trap</text>
</g>
</svg>
