<?xml version="1.0" encoding="utf-8"?>
<!-- Generator: Adobe Illustrator 25.2.3, SVG Export Plug-In . SVG Version: 6.00 Build 0)  -->
<svg version="1.1"
	 id="menu" xmlns:cc="http://creativecommons.org/ns#" xmlns:dc="http://purl.org/dc/elements/1.1/" xmlns:inkscape="http://www.inkscape.org/namespaces/inkscape" xmlns:rdf="http://www.w3.org/1999/02/22-rdf-syntax-ns#" xmlns:sodipodi="http://sodipodi.sourceforge.net/DTD/sodipodi-0.dtd" xmlns:svg="http://www.w3.org/2000/svg"
	 xmlns="http://www.w3.org/2000/svg" xmlns:xlink="http://www.w3.org/1999/xlink" x="0px" y="0px" viewBox="0 0 200 150"
	 enable-background="new 0 0 200 150" xml:space="preserve">
<path id="bg" sodipodi:nodetypes="ssssssscccss" fill="#2F2F2F" fill-opacity="0.8078" d="M15-40h83c2.8,0,5,1.3,5,3.1v73.9
	c0,1.7-2.2,3.1-5,3.1H15c-2.8,0-5-1.3-5-3.1V6.2L0,0.1L10-6v-30.9C10-38.7,12.2-40,15-40z"/>
<g id="node">
	
		<rect id="rect_x5F_node_x5F_press" x="11.5" y="10" display="none" fill="#DD9408" fill-opacity="0.9608" width="90" height="21.1"/>
	<rect id="rect_x5F_node" x="11.5" y="10" fill="#573612" fill-opacity="0.9608" width="90" height="21.1"/>
	
		<text id="lbl_x5F_node" transform="matrix(1 0 0 1 15.7266 25.7033)" fill="#FFFFFF" font-family="'B612-Regular'" font-size="14px">Graph node</text>
</g>
<g id="to_x5F_define">
	<rect id="rect_x5F_to_x5F_define_x5F_press" x="11.5" y="-15" fill="#DD9408" fill-opacity="0.9608" width="90" height="21.1"/>
	<rect id="rect_x5F_to_x5F_define_1_" x="11.5" y="-15" fill="#573612" fill-opacity="0.9608" width="90" height="21.1"/>
	
		<text id="lbl_x5F_to_x5F_define" transform="matrix(1 0 0 1 16.3421 0.7449)" fill="#FFFFFF" font-family="'B612-Regular'" font-size="14px">To define ?</text>
</g>
<g id="btn_x5F_close">
	
		<rect id="close_mask" x="88" y="-36" fill="none" stroke="#FFFFFF" stroke-width="0.25" stroke-miterlimit="10" width="11.8" height="11.8"/>
	<line fill="none" stroke="#FFFFFF" stroke-miterlimit="10" x1="89.8" y1="-34.1" x2="97.9" y2="-26.1"/>
	<line fill="none" stroke="#FFFFFF" stroke-miterlimit="10" x1="89.8" y1="-26.1" x2="97.9" y2="-34.1"/>
</g>
</svg>
