<?xml version="1.0" encoding="utf-8"?>
<!-- Generator: Adobe Illustrator 26.0.3, SVG Export Plug-In . SVG Version: 6.00 Build 0)  -->
<svg version="1.1" id="Calque_1" xmlns="http://www.w3.org/2000/svg" xmlns:xlink="http://www.w3.org/1999/xlink" x="0px" y="0px"
	 width="1920px" height="1080px" viewBox="0 0 1920 1080" enable-background="new 0 0 1920 1080" xml:space="preserve">
<g id="icon">
	<circle id="marker" fill="#D435FF" cx="0.61" cy="-0.17" r="5.92"/>
	<path d="M20.94-5.5h-15v-4.32H3.9v-4.32H1.85v-12.72h2.04v-6.36h-6.36v6.36h2.04v12.72h-2.04v4.32h-2.04v4.32h-15
		c-1.82,0-3.18,1.36-3.18,3.18v27.71c0,4.08,3.4,7.5,7.5,7.5h32.03c4.08,0,7.5-3.4,7.5-7.5V-2.32C24.12-4.14,22.52-5.5,20.94-5.5z
		 M-0.42-31.18h2.04v2.04h-2.04V-31.18z M-0.42-11.86h2.04v2.04h-2.04V-11.86z M-2.69-7.54h6.36v2.04h-6.36V-7.54z M21.84,17.89
		H19.8v2.04h2.04v5.22c0,2.96-2.5,5.22-5.22,5.22h-32.03c-2.96,0-5.22-2.5-5.22-5.22v-5.22h2.04v-2.04h-2.04V-2.32
		c0-0.68,0.46-1.14,1.14-1.14h19.08v2.04h2.04v-2.04H20.7c0.68,0,1.14,0.46,1.14,1.14L21.84,17.89L21.84,17.89z"/>
	<path d="M-9.05-1.19c-5.22,0-9.54,4.32-9.54,9.54s4.32,9.54,9.54,9.54s9.54-4.32,9.54-9.54S-3.83-1.19-9.05-1.19z M-9.05,15.85
		c-4.08,0-7.5-3.4-7.5-7.5s3.4-7.5,7.5-7.5s7.5,3.42,7.5,7.5S-4.96,15.85-9.05,15.85z"/>
	<path d="M-7.91,5.17h-6.36v6.36h6.36V9.49h4.32V7.45h-4.32V5.17z M-10.19,9.49h-2.04V7.45h2.04V9.49z"/>
	<path d="M10.26-1.19c-5.22,0-9.54,4.32-9.54,9.54s4.32,9.54,9.54,9.54s9.54-4.32,9.54-9.54S15.48-1.19,10.26-1.19z M10.26,15.85
		c-4.08,0-7.5-3.4-7.5-7.5s3.4-7.5,7.5-7.5s7.5,3.42,7.5,7.5S14.34,15.85,10.26,15.85z"/>
	<path d="M7.08,9.49h2.04v4.32h2.04V9.49h2.04V3.13H6.85L7.08,9.49L7.08,9.49z M9.12,5.17h2.04v2.04H9.12V5.17z"/>
	<path d="M-10.19,20.17c-2.28,0-4.32,1.82-4.32,4.32c0,2.28,1.82,4.32,4.32,4.32c2.28,0,4.32-1.82,4.32-4.32
		S-7.69,20.17-10.19,20.17z M-10.19,26.53c-1.14,0-2.04-0.9-2.04-2.04c0-1.14,0.9-2.04,2.04-2.04s2.04,0.9,2.04,2.04
		C-7.91,25.61-8.81,26.53-10.19,26.53z"/>
	<path d="M0.49,20.17c-2.28,0-4.32,1.82-4.32,4.32c0,2.28,1.82,4.32,4.32,4.32s4.32-1.82,4.32-4.32
		C4.81,21.99,2.99,20.17,0.49,20.17z M0.49,26.53c-1.14,0-2.04-0.9-2.04-2.04c0-1.14,0.9-2.04,2.04-2.04s2.04,0.9,2.04,2.04
		C2.76,25.61,1.85,26.53,0.49,26.53z"/>
	<path d="M11.16,20.17c-2.28,0-4.32,1.82-4.32,4.32c0,2.28,1.82,4.32,4.32,4.32c2.28,0,4.32-1.82,4.32-4.32
		C15.48,21.99,13.66,20.17,11.16,20.17z M11.16,26.53c-1.14,0-2.04-0.9-2.04-2.04c0-1.14,0.9-2.04,2.04-2.04s2.04,0.9,2.04,2.04
		C13.44,25.61,12.3,26.53,11.16,26.53z"/>
	<path d="M20.94-16.18c2.28,0,4.32-1.82,4.32-4.32c0-2.28-1.82-4.32-4.32-4.32c-2.28,0-4.32,1.82-4.32,4.32S18.44-16.18,20.94-16.18
		z M20.94-22.54c1.14,0,2.04,0.9,2.04,2.04s-0.9,2.04-2.04,2.04s-2.04-0.9-2.04-2.04S19.58-22.54,20.94-22.54z"/>
	<path d="M20.94-33.22v2.04c5.9,0,10.68,4.78,10.68,10.68S26.84-9.82,20.94-9.82v2.04c7.04,0,12.72-5.68,12.72-12.72
		S27.98-33.22,20.94-33.22z"/>
	<path d="M27.3-20.5c0,3.64-2.96,6.36-6.36,6.36v2.04c4.78,0,8.64-3.86,8.64-8.64s-3.86-8.64-8.64-8.64v2.04
		C24.34-26.86,27.3-23.9,27.3-20.5z"/>
	<rect x="12.3" y="-21.4" width="2.04" height="2.04"/>
	<rect x="7.98" y="-21.4" width="2.04" height="2.04"/>
	<path d="M-24.05-20.5c0,2.28,1.82,4.32,4.32,4.32s4.32-1.82,4.32-4.32c0-2.28-1.82-4.32-4.32-4.32S-24.05-22.76-24.05-20.5z
		 M-17.45-20.5c0,1.14-0.9,2.04-2.04,2.04s-2.04-0.9-2.04-2.04s0.9-2.04,2.04-2.04C-18.59-22.54-17.45-21.64-17.45-20.5z"/>
	<path d="M-19.73-9.82c-5.9,0-10.68-4.78-10.68-10.68s4.78-10.68,10.68-10.68v-2.04c-7.04,0-12.72,5.68-12.72,12.72
		s5.68,12.72,12.72,12.72V-9.82z"/>
	<path d="M-19.73-26.86v-2.04c-4.78,0-8.64,3.86-8.64,8.64s3.86,8.64,8.64,8.64v-2.04c-3.64,0-6.36-2.96-6.36-6.36
		C-26.09-23.9-23.13-26.86-19.73-26.86z"/>
	<rect x="-13.37" y="-21.4" width="2.04" height="2.04"/>
	<rect x="-9.05" y="-21.4" width="2.04" height="2.04"/>
</g>
</svg>
