<?xml version="1.0" encoding="utf-8"?>
<!-- Generator: Adobe Illustrator 26.0.3, SVG Export Plug-In . SVG Version: 6.00 Build 0)  -->
<svg version="1.1" id="Calque_1" xmlns="http://www.w3.org/2000/svg" xmlns:xlink="http://www.w3.org/1999/xlink" x="0px" y="0px"
	 width="1920px" height="1080px" viewBox="0 0 1920 1080" enable-background="new 0 0 1920 1080" xml:space="preserve">
<g id="icon">
	<circle id="marker" fill="#D435FF" cx="0" cy="0" r="4"/>
	<path d="M13.75-3.61H3.61v-2.92H2.23v-2.92H0.84v-8.6h1.38v-4.3h-4.3v4.3h1.38v8.6h-1.38v2.92h-1.38v2.92h-10.14
		c-1.23,0-2.15,0.92-2.15,2.15v18.74c0,2.76,2.3,5.07,5.07,5.07h21.66c2.76,0,5.07-2.3,5.07-5.07V-1.46
		C15.9-2.69,14.82-3.61,13.75-3.61z M-0.69-20.97h1.38v1.38h-1.38V-20.97z M-0.69-7.91h1.38v1.38h-1.38V-7.91z M-2.23-4.99h4.3v1.38
		h-4.3V-4.99z M14.36,12.21h-1.38v1.38h1.38v3.53c0,2-1.69,3.53-3.53,3.53h-21.66c-2,0-3.53-1.69-3.53-3.53v-3.53h1.38v-1.38h-1.38
		V-1.46c0-0.46,0.31-0.77,0.77-0.77h12.9v1.38h1.38v-1.38h12.9c0.46,0,0.77,0.31,0.77,0.77L14.36,12.21L14.36,12.21z"/>
	<path d="M-6.53-0.69c-3.53,0-6.45,2.92-6.45,6.45s2.92,6.45,6.45,6.45s6.45-2.92,6.45-6.45S-3-0.69-6.53-0.69z M-6.53,10.83
		c-2.76,0-5.07-2.3-5.07-5.07s2.3-5.07,5.07-5.07S-1.46,3-1.46,5.76S-3.76,10.83-6.53,10.83z"/>
	<path d="M-5.76,3.61h-4.3v4.3h4.3V6.53h2.92V5.15h-2.92V3.61z M-7.3,6.53h-1.38V5.15h1.38V6.53z"/>
	<path d="M6.53-0.69C3-0.69,0.08,2.23,0.08,5.76S3,12.21,6.53,12.21s6.45-2.92,6.45-6.45S10.06-0.69,6.53-0.69z M6.53,10.83
		c-2.76,0-5.07-2.3-5.07-5.07s2.3-5.07,5.07-5.07S11.6,3,11.6,5.76S9.29,10.83,6.53,10.83z"/>
	<path d="M4.38,6.53h1.38v2.92h1.38V6.53h1.38v-4.3h-4.3L4.38,6.53L4.38,6.53z M5.76,3.61h1.38v1.38H5.76V3.61z"/>
	<path d="M-7.3,13.75c-1.54,0-2.92,1.23-2.92,2.92c0,1.54,1.23,2.92,2.92,2.92c1.54,0,2.92-1.23,2.92-2.92
		C-4.38,14.98-5.61,13.75-7.3,13.75z M-7.3,18.05c-0.77,0-1.38-0.61-1.38-1.38c0-0.77,0.61-1.38,1.38-1.38s1.38,0.61,1.38,1.38
		C-5.76,17.43-6.37,18.05-7.3,18.05z"/>
	<path d="M-0.08,13.75c-1.54,0-2.92,1.23-2.92,2.92c0,1.54,1.23,2.92,2.92,2.92s2.92-1.23,2.92-2.92
		C2.84,14.98,1.61,13.75-0.08,13.75z M-0.08,18.05c-0.77,0-1.38-0.61-1.38-1.38c0-0.77,0.61-1.38,1.38-1.38s1.38,0.61,1.38,1.38
		C1.46,17.43,0.84,18.05-0.08,18.05z"/>
	<path d="M7.14,13.75c-1.54,0-2.92,1.23-2.92,2.92c0,1.54,1.23,2.92,2.92,2.92c1.54,0,2.92-1.23,2.92-2.92
		C10.06,14.98,8.83,13.75,7.14,13.75z M7.14,18.05c-0.77,0-1.38-0.61-1.38-1.38c0-0.77,0.61-1.38,1.38-1.38s1.38,0.61,1.38,1.38
		C8.68,17.43,7.91,18.05,7.14,18.05z"/>
	<path d="M13.75-10.83c1.54,0,2.92-1.23,2.92-2.92c0-1.54-1.23-2.92-2.92-2.92c-1.54,0-2.92,1.23-2.92,2.92S12.06-10.83,13.75-10.83
		z M13.75-15.13c0.77,0,1.38,0.61,1.38,1.38s-0.61,1.38-1.38,1.38c-0.77,0-1.38-0.61-1.38-1.38S12.83-15.13,13.75-15.13z"/>
	<path d="M13.75-22.35v1.38c3.99,0,7.22,3.23,7.22,7.22s-3.23,7.22-7.22,7.22v1.38c4.76,0,8.6-3.84,8.6-8.6S18.51-22.35,13.75-22.35
		z"/>
	<path d="M18.05-13.75c0,2.46-2,4.3-4.3,4.3v1.38c3.23,0,5.84-2.61,5.84-5.84c0-3.23-2.61-5.84-5.84-5.84v1.38
		C16.05-18.05,18.05-16.05,18.05-13.75z"/>
	<rect x="7.91" y="-14.36" width="1.38" height="1.38"/>
	<rect x="4.99" y="-14.36" width="1.38" height="1.38"/>
	<path d="M-16.67-13.75c0,1.54,1.23,2.92,2.92,2.92s2.92-1.23,2.92-2.92c0-1.54-1.23-2.92-2.92-2.92S-16.67-15.28-16.67-13.75z
		 M-12.21-13.75c0,0.77-0.61,1.38-1.38,1.38s-1.38-0.61-1.38-1.38s0.61-1.38,1.38-1.38C-12.98-15.13-12.21-14.52-12.21-13.75z"/>
	<path d="M-13.75-6.53c-3.99,0-7.22-3.23-7.22-7.22s3.23-7.22,7.22-7.22v-1.38c-4.76,0-8.6,3.84-8.6,8.6s3.84,8.6,8.6,8.6V-6.53z"/>
	<path d="M-13.75-18.05v-1.38c-3.23,0-5.84,2.61-5.84,5.84c0,3.23,2.61,5.84,5.84,5.84v-1.38c-2.46,0-4.3-2-4.3-4.3
		C-18.05-16.05-16.05-18.05-13.75-18.05z"/>
	<rect x="-9.45" y="-14.36" width="1.38" height="1.38"/>
	<rect x="-6.53" y="-14.36" width="1.38" height="1.38"/>
</g>
</svg>
