<?xml version="1.0" encoding="utf-8"?>
<!-- Generator: Adobe Illustrator 26.0.3, SVG Export Plug-In . SVG Version: 6.00 Build 0)  -->
<svg version="1.1" id="Calque_1" xmlns="http://www.w3.org/2000/svg" xmlns:xlink="http://www.w3.org/1999/xlink" x="0px" y="0px"
	 width="1920px" height="1080px" viewBox="0 0 1920 1080" enable-background="new 0 0 1920 1080" xml:space="preserve">
<g id="icon">
	<rect id="picking" x="-18.26" y="-18.27" fill="none" width="36.94" height="36.94"/>
	<circle id="marker" fill="#D435FF" cx="0.01" cy="0" r="3.27"/>
	<path d="M11.25-2.95H2.96v-2.39H1.83v-2.39H0.7v-7.03h1.13v-3.52h-3.52v3.52h1.13v7.03h-1.13v2.39h-1.13v2.39h-8.29
		c-1.01,0-1.76,0.75-1.76,1.76v15.32c0,2.26,1.88,4.15,4.15,4.15h17.7c2.26,0,4.15-1.88,4.15-4.15V-1.19
		C13.01-2.2,12.12-2.95,11.25-2.95z M-0.56-17.14h1.13v1.13h-1.13C-0.56-16.02-0.56-17.14-0.56-17.14z M-0.56-6.46h1.13v1.13h-1.13
		C-0.56-5.34-0.56-6.46-0.56-6.46z M-1.81-4.08H1.7v1.13h-3.52L-1.81-4.08L-1.81-4.08z M11.75,9.98h-1.13v1.13h1.13V14
		c0,1.64-1.38,2.89-2.89,2.89h-17.7c-1.64,0-2.89-1.38-2.89-2.89v-2.89h1.13V9.98h-1.13V-1.19c0-0.38,0.25-0.63,0.63-0.63h10.55
		v1.13h1.13v-1.13h10.54c0.38,0,0.63,0.25,0.63,0.63L11.75,9.98L11.75,9.98z"/>
	<path d="M-5.33-0.57c-2.89,0-5.27,2.39-5.27,5.27s2.39,5.27,5.27,5.27s5.27-2.39,5.27-5.27S-2.44-0.57-5.33-0.57z M-5.33,8.85
		c-2.26,0-4.15-1.88-4.15-4.15s1.88-4.15,4.15-4.15s4.15,1.89,4.15,4.15S-3.07,8.85-5.33,8.85z"/>
	<path d="M-4.7,2.95h-3.52v3.52h3.52V5.34h2.39V4.21H-4.7V2.95z M-5.96,5.34h-1.13V4.21h1.13V5.34z"/>
	<path d="M5.35-0.57c-2.89,0-5.27,2.39-5.27,5.27s2.39,5.27,5.27,5.27s5.27-2.39,5.27-5.27S8.23-0.57,5.35-0.57z M5.35,8.85
		C3.09,8.85,1.2,6.97,1.2,4.7s1.88-4.15,4.15-4.15S9.5,2.44,9.5,4.7S7.6,8.85,5.35,8.85z"/>
	<path d="M3.59,5.34h1.13v2.39h1.13V5.34h1.13V1.82H3.46L3.59,5.34L3.59,5.34z M4.72,2.95h1.13v1.13H4.72V2.95z"/>
	<path d="M-5.96,11.24c-1.26,0-2.39,1.01-2.39,2.39c0,1.26,1.01,2.39,2.39,2.39c1.26,0,2.39-1.01,2.39-2.39S-4.58,11.24-5.96,11.24z
		 M-5.96,14.75c-0.63,0-1.13-0.5-1.13-1.13s0.5-1.13,1.13-1.13s1.13,0.5,1.13,1.13C-4.7,14.25-5.2,14.75-5.96,14.75z"/>
	<path d="M-0.05,11.24c-1.26,0-2.39,1.01-2.39,2.39c0,1.26,1.01,2.39,2.39,2.39s2.39-1.01,2.39-2.39
		C2.33,12.25,1.33,11.24-0.05,11.24z M-0.05,14.75c-0.63,0-1.13-0.5-1.13-1.13s0.5-1.13,1.13-1.13s1.13,0.5,1.13,1.13
		C1.2,14.25,0.7,14.75-0.05,14.75z"/>
	<path d="M5.84,11.24c-1.26,0-2.39,1.01-2.39,2.39c0,1.26,1.01,2.39,2.39,2.39c1.26,0,2.39-1.01,2.39-2.39S7.22,11.24,5.84,11.24z
		 M5.84,14.75c-0.63,0-1.13-0.5-1.13-1.13s0.5-1.13,1.13-1.13s1.13,0.5,1.13,1.13C7.1,14.25,6.47,14.75,5.84,14.75z"/>
	<path d="M11.25-8.85c1.26,0,2.39-1.01,2.39-2.39c0-1.26-1.01-2.39-2.39-2.39c-1.26,0-2.39,1.01-2.39,2.39S9.87-8.85,11.25-8.85z
		 M11.25-12.37c0.63,0,1.13,0.5,1.13,1.13s-0.5,1.13-1.13,1.13s-1.13-0.5-1.13-1.13S10.5-12.37,11.25-12.37z"/>
	<path d="M11.25-18.27v1.13c3.26,0,5.9,2.64,5.9,5.9s-2.64,5.9-5.9,5.9v1.13c3.89,0,7.03-3.14,7.03-7.03S15.14-18.27,11.25-18.27z"
		/>
	<path d="M14.76-11.24c0,2.01-1.64,3.52-3.52,3.52v1.13c2.64,0,4.78-2.13,4.78-4.78s-2.13-4.78-4.78-4.78v1.13
		C13.13-14.75,14.76-13.12,14.76-11.24z"/>
	<rect x="6.47" y="-11.74" width="1.13" height="1.13"/>
	<rect x="4.08" y="-11.74" width="1.13" height="1.13"/>
	<path d="M-13.62-11.24c0,1.26,1.01,2.39,2.39,2.39s2.39-1.01,2.39-2.39c0-1.26-1.01-2.39-2.39-2.39S-13.62-12.49-13.62-11.24z
		 M-9.97-11.24c0,0.63-0.5,1.13-1.13,1.13s-1.13-0.5-1.13-1.13s0.5-1.13,1.13-1.13C-10.6-12.37-9.97-11.87-9.97-11.24z"/>
	<path d="M-11.23-5.34c-3.26,0-5.9-2.64-5.9-5.9s2.64-5.9,5.9-5.9v-1.13c-3.89,0-7.03,3.14-7.03,7.03s3.14,7.03,7.03,7.03V-5.34z"/>
	<path d="M-11.23-14.75v-1.13c-2.64,0-4.78,2.13-4.78,4.78s2.13,4.78,4.78,4.78v-1.13c-2.01,0-3.52-1.64-3.52-3.52
		C-14.75-13.12-13.11-14.75-11.23-14.75z"/>
	<rect x="-7.72" y="-11.74" width="1.13" height="1.13"/>
	<rect x="-5.33" y="-11.74" width="1.13" height="1.13"/>
</g>
</svg>
