<?xml version="1.0" encoding="utf-8"?>
<!-- Generator: Adobe Illustrator 26.0.3, SVG Export Plug-In . SVG Version: 6.00 Build 0)  -->
<svg version="1.1" id="Calque_1" xmlns="http://www.w3.org/2000/svg" xmlns:xlink="http://www.w3.org/1999/xlink" x="0px" y="0px"
	 width="1920px" height="1080px" viewBox="0 0 1920 1080" enable-background="new 0 0 1920 1080" xml:space="preserve">
<path id="ok" fill="#00CC00" d="M0-7.5c-4.1,0-7.5,3.4-7.5,7.5S-4.1,7.5,0,7.5S7.5,4.1,7.5,0S4.1-7.5,0-7.5z M-1.5,3.9L-5,0.4
	l1.1-1.1l2.4,2.4l5.2-5.2l1.1,1.1L-1.5,3.9z"/>
<path id="error" fill="#FF0000" d="M0-7.5c-4.2,0-7.5,3.3-7.5,7.5c0,4.1,3.3,7.5,7.5,7.5S7.5,4.1,7.5,0C7.5-4.2,4.2-7.5,0-7.5z
	 M4,2.9L2.9,4L0,1.1L-2.9,4L-4,2.9L-1.1,0L-4-2.9L-2.9-4L0-1.1L2.8-4L4-2.9L1.1,0L4,2.9z"/>
<path id="warning" fill="#EBB223" d="M0-7.5c-4.1,0-7.5,3.4-7.5,7.5S-4.1,7.5,0,7.5S7.5,4.1,7.5,0S4.1-7.5,0-7.5z M0.9,4.1h-1.9v-5
	h1.9V4.1z M0.9-2.2h-1.9v-1.9h1.9V-2.2z"/>
</svg>
