<?xml version="1.0" encoding="utf-8"?>
<!-- Generator: Adobe Illustrator 26.0.3, SVG Export Plug-In . SVG Version: 6.00 Build 0)  -->
<svg version="1.1" id="Calque_1" xmlns="http://www.w3.org/2000/svg" xmlns:xlink="http://www.w3.org/1999/xlink" x="0px" y="0px"
	 width="841.89px" height="595.28px" viewBox="0 0 841.89 595.28" enable-background="new 0 0 841.89 595.28" xml:space="preserve">
<g id="Strip">
	
		<linearGradient id="background_00000048473185358520680730000000054052333962569874_" gradientUnits="userSpaceOnUse" x1="181.3188" y1="473.508" x2="181.3188" y2="598.508" gradientTransform="matrix(1 0 0 -1 0 598)">
		<stop  offset="0" style="stop-color:#FFFFFF"/>
		<stop  offset="0.038" style="stop-color:#D4D4D4"/>
		<stop  offset="0.08" style="stop-color:#DBDBDB"/>
		<stop  offset="1" style="stop-color:#CCCCCC"/>
	</linearGradient>
	
		<path id="background" fill="url(#background_00000048473185358520680730000000054052333962569874_)" stroke="#000000" stroke-miterlimit="10" d="
		M361.32,115.99c0,4.7-3.81,8.5-8.5,8.5H9.82c-4.7,0-8.5-3.81-8.5-8.5V8c0-4.7,3.81-8.5,8.5-8.5h342.99c4.7,0,8.5,3.81,8.5,8.5
		V115.99z"/>
	
		<linearGradient id="strip_color_00000010312964570436806800000006849853649007986327_" gradientUnits="userSpaceOnUse" x1="53.6703" y1="574.4917" x2="53.6703" y2="598.4161" gradientTransform="matrix(1 0 0 -1 0 598)">
		<stop  offset="0" style="stop-color:#FF0D83;stop-opacity:0.7"/>
		<stop  offset="0.7646" style="stop-color:#FF0D86"/>
		<stop  offset="1" style="stop-color:#FFA8D4"/>
	</linearGradient>
	<path id="strip_color" fill="url(#strip_color_00000010312964570436806800000006849853649007986327_)" d="M106.02-0.51H9.82
		c-4.7,0-8.5,3.81-8.5,8.5v15.32h104.7L106.02-0.51L106.02-0.51z"/>
	<g id="hachures_14_" opacity="0.4">
		<polygon fill="#BDBDBD" points="1.43,10.08 1.43,17.15 18.91,-0.33 11.84,-0.33 		"/>
		<polygon fill="#BDBDBD" points="1.43,22.25 1.43,29.32 31.08,-0.33 24.01,-0.33 		"/>
		<polygon fill="#BDBDBD" points="1.43,34.41 1.43,41.48 43.24,-0.33 36.17,-0.33 		"/>
		<polygon fill="#BDBDBD" points="1.43,46.58 1.43,53.65 55.41,-0.33 48.34,-0.33 		"/>
		<polygon fill="#BDBDBD" points="1.43,58.75 1.43,65.82 67.58,-0.33 60.51,-0.33 		"/>
		<polygon fill="#BDBDBD" points="1.43,70.91 1.43,77.98 78.86,-0.33 72.67,-0.33 		"/>
		<polygon fill="#BDBDBD" points="1.43,90.15 85.02,6.56 91.35,-0.51 85.02,-0.51 1.43,83.08 		"/>
		<polygon fill="#BDBDBD" points="1.43,102.32 93.24,10.5 93.24,3.43 1.43,95.25 		"/>
		<polygon fill="#BDBDBD" points="1.43,114.48 93.41,22.5 93.41,15.43 1.43,107.41 		"/>
		<polygon fill="#BDBDBD" points="4.95,123.13 93.37,34.71 93.37,27.64 1.86,119.15 		"/>
		<polygon fill="#BDBDBD" points="15.58,124.67 93.34,46.91 93.34,39.84 8.51,124.67 		"/>
		<polygon fill="#BDBDBD" points="27.74,124.67 93.36,59.06 93.36,51.99 20.67,124.67 		"/>
		<polygon fill="#BDBDBD" points="39.91,124.67 93.42,71.16 93.42,64.09 32.84,124.67 		"/>
		<polygon fill="#BDBDBD" points="52.08,124.67 93.42,83.33 93.42,76.26 45.01,124.67 		"/>
		<polygon fill="#BDBDBD" points="64.24,124.67 93.42,95.5 93.42,88.43 57.17,124.67 		"/>
		<polygon fill="#BDBDBD" points="76.28,124.67 93.42,107.66 93.42,100.59 69.34,124.67 		"/>
		<polygon fill="#BDBDBD" points="88.19,124.48 93.42,119.38 93.42,112.31 81.25,124.48 		"/>
	</g>
	
		<linearGradient id="bar_00000042718363792174103980000005095592061272423828_" gradientUnits="userSpaceOnUse" x1="227.4688" y1="574.689" x2="227.4688" y2="598.689" gradientTransform="matrix(1 0 0 -1 0 598)">
		<stop  offset="0" style="stop-color:#BDBDBD"/>
		<stop  offset="0.791" style="stop-color:#ADADAD"/>
		<stop  offset="1" style="stop-color:#E8E8E8"/>
	</linearGradient>
	<path id="bar_12_" fill="url(#bar_00000042718363792174103980000005095592061272423828_)" d="M93.32,23.31V8.24
		c0-5.76,5.63-8.92,9.5-8.92h251.8c3.86,0,7,3.06,7,6.92v17.08H93.32z"/>
	
		<line id="separator_12_" fill="none" stroke="#CCCCCC" stroke-width="0.75" stroke-miterlimit="10" x1="224.62" y1="104.81" x2="224.62" y2="27.31"/>
	<g id="central">
		<g id="data">
			<g id="heading">
				<path fill="#FFFFE6" stroke="#808080" stroke-width="0.75" stroke-miterlimit="10" d="M156.62,116.81c0,1.1-0.9,2-2,2h-46
					c-1.1,0-2-0.9-2-2v-12c0-1.1,0.9-2,2-2h46c1.1,0,2,0.9,2,2V116.81z"/>
				
					<text id="heading_text" transform="matrix(1 0 0 1 109.7988 114.9183)" fill="#4D4D4D" font-family="'ArialMT'" font-size="9px">-120m</text>
				<text id="label_71_" transform="matrix(1 0 0 1 105.6186 99.2943)" fill="#808080" font-family="'ArialMT'" font-size="9px">Heading</text>
			</g>
			<g id="vs">
				<path fill="#FFFFE6" stroke="#808080" stroke-width="0.4978" stroke-miterlimit="10" d="M215.04,101.31c0,1.1-0.9,2-2,2h-30
					c-1.1,0-2-0.9-2-2v-12c0-1.1,0.9-2,2-2h30c1.1,0,2,0.9,2,2V101.31z"/>
				<text id="tendency_text" transform="matrix(1 0 0 1 183.4399 99.786)" fill="#4D4D4D" font-family="'ArialMT'" font-size="9px">+1.5</text>
				
					<text id="vspeed_tick" transform="matrix(1 0 0 1 165.058 99.786)" fill="#3C3C3B" font-family="'MyriadPro-Regular'" font-size="9px">↗</text>
			</g>
			<g id="altitude">
				<path fill="#FFFFE6" stroke="#808080" stroke-width="0.75" stroke-miterlimit="10" d="M215.04,82.81c0,1.1-0.9,2-2,2h-46
					c-1.1,0-2-0.9-2-2v-12c0-1.1,0.9-2,2-2h46c1.1,0,2,0.9,2,2V82.81z"/>
				
					<text id="altitude_text" transform="matrix(1 0 0 1 167.9258 80.8051)" fill="#4D4D4D" font-family="'ArialMT'" font-size="9px">205.0m</text>
				<text id="label_70_" transform="matrix(1 0 0 1 160.892 65.8285)" fill="#808080" font-family="'ArialMT'" font-size="9px">Alt.</text>
			</g>
			<g id="speed">
				<path fill="#FFFFE6" stroke="#808080" stroke-width="0.75" stroke-miterlimit="10" d="M156.62,82.81c0,1.1-0.9,2-2,2h-46
					c-1.1,0-2-0.9-2-2v-12c0-1.1,0.9-2,2-2h46c1.1,0,2,0.9,2,2V82.81z"/>
				<text id="speed_text" transform="matrix(1 0 0 1 109.7988 80.8051)" fill="#4D4D4D" font-family="'ArialMT'" font-size="9px">10m/s</text>
				<text id="label_69_" transform="matrix(1 0 0 1 105.6186 65.3109)" fill="#808080" font-family="'ArialMT'" font-size="9px">Speed</text>
			</g>
		</g>
		<g id="battery_gauge">
			<path fill="#FFFFFF" stroke="#4D4D4D" stroke-width="0.5132" stroke-miterlimit="10" d="M156.62,52.31c0,1.1-0.9,2-2,2h-46
				c-1.1,0-2-0.9-2-2v-14c0-1.1,0.9-2,2-2h46c1.1,0,2,0.9,2,2V52.31z"/>
			<rect id="battery_rect" x="108.62" y="38.31" fill="#00EB00" width="46" height="14"/>
			
				<text id="battery_percentage" transform="matrix(1 0 0 1 119.4199 49.8794)" fill="#FFFFFF" font-family="'ArialMT'" font-size="9px">80%</text>
		</g>
		<text id="battery" transform="matrix(1 0 0 1 105.3198 33.6605)" fill="#808080" font-family="'ArialMT'" font-size="9px">battery_%</text>
	</g>
	<g id="left">
		<g id="status">
			<g id="gps">
				
					<linearGradient id="gps_rect_00000137842199003135265530000007538306324508514227_" gradientUnits="userSpaceOnUse" x1="64.3198" y1="478.689" x2="64.3198" y2="494.689" gradientTransform="matrix(1 0 0 -1 0 598)">
					<stop  offset="0" style="stop-color:#00E600"/>
					<stop  offset="0.85" style="stop-color:#00E600"/>
					<stop  offset="1" style="stop-color:#008000"/>
				</linearGradient>
				
					<rect id="gps_rect" x="44.32" y="103.31" fill="url(#gps_rect_00000137842199003135265530000007538306324508514227_)" stroke="#FFFFFF" stroke-width="0.8528" stroke-miterlimit="10" width="40" height="16"/>
				<text id="gps_text" transform="matrix(1 0 0 1 58.0654 115.5555)" fill="#FFFFFF" font-family="'ArialMT'" font-size="9px">3D</text>
			</g>
			<g id="radio">
				
					<linearGradient id="radio_status_00000124148604442519343770000008546539036878418082_" gradientUnits="userSpaceOnUse" x1="64.3198" y1="496.689" x2="64.3198" y2="512.689" gradientTransform="matrix(1 0 0 -1 0 598)">
					<stop  offset="0" style="stop-color:#FFAA00"/>
					<stop  offset="0.85" style="stop-color:#FFAA00"/>
					<stop  offset="1" style="stop-color:#B35300"/>
				</linearGradient>
				
					<rect id="radio_status" x="44.32" y="85.31" fill="url(#radio_status_00000124148604442519343770000008546539036878418082_)" stroke="#FFFFFF" stroke-width="0.788" stroke-miterlimit="10" width="40" height="16"/>
				<text id="radio_text" transform="matrix(1 0 0 1 52.02 97.5555)" fill="#FFFFFF" font-family="'ArialMT'" font-size="9px">None</text>
			</g>
			<g id="AP">
				
					<linearGradient id="ap_rect_00000048482491031150408470000007176913061882526909_" gradientUnits="userSpaceOnUse" x1="64.3198" y1="514.689" x2="64.3198" y2="530.689" gradientTransform="matrix(1 0 0 -1 0 598)">
					<stop  offset="0" style="stop-color:#00E600"/>
					<stop  offset="0.85" style="stop-color:#00E600"/>
					<stop  offset="1" style="stop-color:#008000"/>
				</linearGradient>
				
					<rect id="ap_rect" x="44.32" y="67.31" fill="url(#ap_rect_00000048482491031150408470000007176913061882526909_)" stroke="#FFFFFF" stroke-width="0.8528" stroke-miterlimit="10" width="40" height="16"/>
				<text id="ap_text" transform="matrix(1 0 0 1 50.3846 79.5555)" fill="#FFFFFF" font-family="'ArialMT'" font-size="9px">Auto2</text>
			</g>
			<text id="status_label" transform="matrix(1 0 0 1 44.3198 64.6415)" fill="#808080" font-family="'ArialMT'" font-size="9px">Status</text>
		</g>
		<g id="link">
			
				<linearGradient id="status_rect_00000039095530572739854720000006478647319666361220_" gradientUnits="userSpaceOnUse" x1="18.5208" y1="504.689" x2="18.5208" y2="530.689" gradientTransform="matrix(1 0 0 -1 0 598)">
				<stop  offset="0" style="stop-color:#00E600"/>
				<stop  offset="0.91" style="stop-color:#00E600"/>
				<stop  offset="1" style="stop-color:#008000"/>
			</linearGradient>
			
				<rect id="status_rect" x="1.52" y="67.31" fill="url(#status_rect_00000039095530572739854720000006478647319666361220_)" stroke="#FFFFFF" stroke-width="0.8094" stroke-miterlimit="10" width="34" height="26"/>
			<g id="status_symbol">
				
					<line fill="none" stroke="#FFFFFF" stroke-width="2" stroke-linecap="round" stroke-miterlimit="10" x1="14.81" y1="80.81" x2="21.69" y2="80.81"/>
				<path fill="none" stroke="#FFFFFF" stroke-width="2" stroke-linecap="round" stroke-miterlimit="10" d="M16.16,84.31h-1.86
					c-1.9,0-3.44-1.57-3.44-3.5l0,0c0-1.93,1.54-3.5,3.44-3.5h1.86"/>
				<path fill="none" stroke="#FFFFFF" stroke-width="2" stroke-linecap="round" stroke-miterlimit="10" d="M20.46,77.31h1.75
					c1.9,0,3.44,1.57,3.44,3.5l0,0c0,1.93-1.54,3.5-3.44,3.5h-1.75"/>
			</g>
			<text transform="matrix(1 0 0 1 10.0234 64.6415)" fill="#808080" font-family="'ArialMT'" font-size="9px">Link</text>
		</g>
		<g id="energy">
			<g id="gauge">
				<g id="shape">
					<path fill="#FFFFFF" stroke="#706F6F" stroke-width="1.0625" stroke-miterlimit="10" d="M75.32,50.31c0,1.66-1.34,3-3,3h-58
						c-1.66,0-3-1.34-3-3v-11c0-1.66,1.34-3,3-3h58c1.66,0,3,1.34,3,3V50.31z"/>
					<path id="extend_15_" fill="#FFFFFF" stroke="#706F6F" stroke-width="1.0364" stroke-miterlimit="10" d="M79.47,47.57
						c0,1.15-0.93,2.07-2.07,2.07h-2.07v-9.33h2.07c1.14,0,2.07,0.93,2.07,2.07L79.47,47.57L79.47,47.57z"/>
				</g>
				<rect id="back" x="13.32" y="38.31" fill="#B3B3B3" width="60" height="13"/>
				<rect id="energy_rect" x="13.32" y="38.31" fill="#00EB00" width="44" height="13"/>
				<text id="energy_text" transform="matrix(1 0 0 1 31.3198 48.9525)" fill="#1D1D1B" font-family="'ArialMT'" font-size="9px">12.5</text>
			</g>
			<g>
				<text transform="matrix(1 0 0 1 10.0239 33.6605)" fill="#808080" font-family="'ArialMT'" font-size="9px">Battery_V</text>
			</g>
		</g>
	</g>
	<line fill="none" stroke="#FFFFFF" stroke-width="0.5" stroke-miterlimit="10" x1="285.91" y1="4.51" x2="285.91" y2="23.98"/>
	<text id="type" transform="matrix(1 0 0 1 105.3198 17.9701)" font-family="'Segoe'" font-size="13px">Agilex</text>
	<text id="id" transform="matrix(1 0 0 1 10.3969 19.5009)" fill="#FFFFFF" font-family="'SegoeUI-Bold'" font-size="13px">UAV_2</text>
	<path id="border" fill="none" stroke="#000000" stroke-miterlimit="10" d="M361.32,115.99c0,4.7-3.81,8.5-8.5,8.5H9.82
		c-4.7,0-8.5-3.81-8.5-8.5V8c0-4.7,3.81-8.5,8.5-8.5h342.99c4.7,0,8.5,3.81,8.5,8.5V115.99z"/>
</g>
</svg>
