<?xml version="1.0" encoding="utf-8"?>
<!-- Generator: Adobe Illustrator 26.0.3, SVG Export Plug-In . SVG Version: 6.00 Build 0)  -->
<svg version="1.1" id="Calque_1" xmlns="http://www.w3.org/2000/svg" xmlns:xlink="http://www.w3.org/1999/xlink" x="0px" y="0px"
	 width="1920px" height="1080px" viewBox="0 0 1920 1080" enable-background="new 0 0 1920 1080" xml:space="preserve">
<g id="strip">
	<path id="strip_bg" fill="#666666" stroke="#D8D8D8" stroke-width="0.5" stroke-miterlimit="10" d="M244.8,25.1H5.4
		c-3,0-5.3-1.8-5.3-4v-17c0-2.2,2.4-4,5.3-4h54.1h185.3c3,0,5.3,1.8,5.3,4v17.1C250.1,23.4,247.8,25.1,244.8,25.1z"/>
	
		<line id="delimiter" fill="none" stroke="#D8D8D8" stroke-width="0.5" stroke-miterlimit="10" x1="81" y1="25.1" x2="80.8" y2="0.2"/>
	
		<line id="delimiter_2" fill="none" stroke="#D8D8D8" stroke-width="0.5" stroke-miterlimit="10" x1="176.1" y1="25" x2="175.9" y2="0.1"/>
	
		<line id="delimiter_3" fill="none" stroke="#D8D8D8" stroke-width="0.5" stroke-miterlimit="10" x1="148" y1="25.1" x2="147.8" y2="0.2"/>
	<g id="strip_monitor_group">
		
			<text id="strip_label" transform="matrix(0.931 0 0 1 17.1427 14.6863)" fill="#FFFFFF" font-family="'Helvetica-Bold'" font-size="10px">BNX8</text>
		<path id="camera_icon" fill-rule="evenodd" clip-rule="evenodd" fill="#FF3E3E" d="M107.5,10c0-1.9,1.5-3.4,3.4-3.4h5.9
			c1.9,0,3.4,1.5,3.4,3.4v0.1l2.7-1.6c0.7-0.4,1.5,0.1,1.5,0.9v6.3c0,0.7-0.8,1.2-1.4,0.9l-2.8-1.3c-0.1,1.7-1.6,3.1-3.4,3.1h-5.9
			c-1.9,0-3.4-1.5-3.4-3.4V10z M120.2,13.5l2.5,1.1v-4.1l-2.5,1.5V13.5z M118.5,10c0-0.9-0.8-1.7-1.7-1.7h-5.9
			c-0.9,0-1.7,0.8-1.7,1.7v5.1c0,0.9,0.8,1.7,1.7,1.7h5.9c0.9,0,1.7-0.8,1.7-1.7V10z"/>
		<path id="laser_icon" fill-rule="evenodd" clip-rule="evenodd" fill="#FF3333" d="M143.5,13.1c-0.2,3.2-2.7,5.8-5.8,6.1v-2h-1v2
			c-3.1-0.2-5.5-2.8-5.8-6.1h1.9v-1H131c0.2-3.2,2.7-5.8,5.8-6.1v2h1V6c3.1,0.2,5.5,2.8,5.8,6.1h-1.9v1L143.5,13.1L143.5,13.1z
			 M144.4,12.1c-0.2-3.8-3.1-6.8-6.7-7.1v-1h-1v1c-3.6,0.3-6.5,3.3-6.7,7.1h-1v1h1c0.2,3.8,3.1,6.8,6.7,7.1v1h1v-1
			c3.6-0.3,6.5-3.3,6.7-7.1h1v-1L144.4,12.1L144.4,12.1z M137.2,9c-1.9,0-3.4,1.6-3.4,3.5s1.5,3.5,3.4,3.5s3.4-1.6,3.4-3.5
			S139.1,9,137.2,9"/>
	</g>
	<g id="tasks_monitor_group">
		<text transform="matrix(0.931 0 0 1 178.1997 8.7259)" fill="#FFFFFF" font-family="'ArialMT'" font-size="9.3037px">tasks</text>
		<path id="task_panel_label" fill="none" stroke="#D8D8D8" stroke-width="0.5" stroke-miterlimit="10" d="M196.9,11.5H176V0.3h25
			v6.7C201,9.5,199.1,11.5,196.9,11.5z"/>
		<g id="btn_add_task">
			<path id="button_show_bg" fill="#545454" stroke="#D8D8D8" stroke-width="0.25" stroke-miterlimit="10" d="M245,9.8h-19.5
				c-1.3,0-2.3-0.9-2.3-2.5V4.4c0-1.4,0.9-2.5,2.3-2.5H245c1.3,0,2.3,0.9,2.3,2.5v2.9C247.2,8.9,246.2,9.8,245,9.8z"/>
			<text transform="matrix(0.931 0 0 1 225.1842 7.9875)" fill="#FFFFFF" font-family="'ArialMT'" font-size="5.5128px">Add</text>
			<path id="plus_icon" fill="none" stroke="#FFFFFF" stroke-width="0.5" stroke-linecap="round" stroke-miterlimit="133.3333" d="
				M242.6,5.9h-0.9 M241.7,5.9h-0.9 M241.7,5.9V5 M241.7,5.9v0.9 M243.3,8.7h-3.1c-0.7,0-1.3-0.5-1.3-1.3v-3c0-0.6,0.6-1.3,1.3-1.3
				h3.1c0.7,0,1.3,0.5,1.3,1.3v3C244.5,8.1,243.9,8.7,243.3,8.7z"/>
		</g>
	</g>
</g>
</svg>
