<?xml version="1.0" encoding="utf-8"?>
<!-- Generator: Adobe Illustrator 26.0.3, SVG Export Plug-In . SVG Version: 6.00 Build 0)  -->
<svg version="1.1" id="Calque_1" xmlns="http://www.w3.org/2000/svg" xmlns:xlink="http://www.w3.org/1999/xlink" x="0px" y="0px"
	 width="841.89px" height="595.28px" viewBox="0 0 841.89 595.28" enable-background="new 0 0 841.89 595.28" xml:space="preserve">
<g id="Strip">
	
		<linearGradient id="background_00000067230698296533893390000017503300944041608111_" gradientUnits="userSpaceOnUse" x1="112.97" y1="606.49" x2="112.97" y2="481.5" gradientTransform="matrix(1 0 0 1 0 -482)">
		<stop  offset="0" style="stop-color:#FFFFFF"/>
		<stop  offset="0.038" style="stop-color:#D4D4D4"/>
		<stop  offset="0.08" style="stop-color:#DBDBDB"/>
		<stop  offset="1" style="stop-color:#CCCCCC"/>
	</linearGradient>
	
		<path id="background" fill="url(#background_00000067230698296533893390000017503300944041608111_)" stroke="#000000" stroke-miterlimit="10" d="
		M224.62,115.99c0,4.7-2.36,8.5-5.27,8.5H6.59c-2.92,0-5.27-3.81-5.27-8.5V8c0-4.7,2.36-8.5,5.27-8.5h212.75
		c2.92,0,5.27,3.81,5.27,8.5L224.62,115.99L224.62,115.99z"/>
	
		<linearGradient id="strip_color_00000137107740732590180510000017596382070359495809_" gradientUnits="userSpaceOnUse" x1="53.67" y1="505.5083" x2="53.67" y2="481.5839" gradientTransform="matrix(1 0 0 1 0 -482)">
		<stop  offset="0" style="stop-color:#FF0D83;stop-opacity:0.7"/>
		<stop  offset="0.7646" style="stop-color:#FF0D86"/>
		<stop  offset="1" style="stop-color:#FFA8D4"/>
	</linearGradient>
	<path id="strip_color" fill="url(#strip_color_00000137107740732590180510000017596382070359495809_)" d="M106.02-0.51H9.82
		c-4.7,0-8.5,3.81-8.5,8.5v15.32h104.7V-0.51L106.02-0.51z"/>
	
		<linearGradient id="bar_00000123411532833558563930000010106483889243531694_" gradientUnits="userSpaceOnUse" x1="158.97" y1="505.32" x2="158.97" y2="481.32" gradientTransform="matrix(1 0 0 1 0 -482)">
		<stop  offset="0" style="stop-color:#BDBDBD"/>
		<stop  offset="0.791" style="stop-color:#ADADAD"/>
		<stop  offset="1" style="stop-color:#E8E8E8"/>
	</linearGradient>
	<path id="bar_12_" fill="url(#bar_00000123411532833558563930000010106483889243531694_)" d="M93.32,23.31V8.24
		c0-5.76,2.76-8.92,4.65-8.92h123.23c1.89,0,3.43,3.06,3.43,6.92v17.08H93.32V23.31z"/>
	
		<line id="separator_12_" fill="none" stroke="#CCCCCC" stroke-width="0.75" stroke-miterlimit="10" x1="224.62" y1="104.81" x2="224.62" y2="27.31"/>
	<g id="central">
		<g id="data">
			<g id="heading">
				<path fill="#FFFFE6" stroke="#808080" stroke-width="0.75" stroke-miterlimit="10" d="M156.62,116.81c0,1.1-0.9,2-2,2h-46
					c-1.1,0-2-0.9-2-2v-12c0-1.1,0.9-2,2-2h46c1.1,0,2,0.9,2,2V116.81z"/>
				
					<text id="heading_text" transform="matrix(1 0 0 1 109.7988 114.9183)" fill="#4D4D4D" font-family="'ArialMT'" font-size="9px">-- m</text>
				<text id="label_71_" transform="matrix(1 0 0 1 105.6186 99.2943)" fill="#808080" font-family="'ArialMT'" font-size="9px">Heading</text>
			</g>
			<g id="vs">
				<path fill="#FFFFE6" stroke="#808080" stroke-width="0.4978" stroke-miterlimit="10" d="M215.04,101.31c0,1.1-0.9,2-2,2h-30
					c-1.1,0-2-0.9-2-2v-12c0-1.1,0.9-2,2-2h30c1.1,0,2,0.9,2,2V101.31z"/>
				<text id="tendency_text" transform="matrix(1 0 0 1 183.4402 99.786)" fill="#4D4D4D" font-family="'ArialMT'" font-size="9px">---</text>
				
					<text id="label_00000143587260016165855640000004922661205958713218_" transform="matrix(1 0 0 1 165.0401 97.8513)" fill="#808080" font-family="'ArialMT'" font-size="9px">Vs</text>
			</g>
			<g id="altitude">
				<path fill="#FFFFE6" stroke="#808080" stroke-width="0.75" stroke-miterlimit="10" d="M215.04,82.81c0,1.1-0.9,2-2,2h-46
					c-1.1,0-2-0.9-2-2v-12c0-1.1,0.9-2,2-2h46c1.1,0,2,0.9,2,2V82.81z"/>
				
					<text id="altitude_text" transform="matrix(1 0 0 1 167.9258 80.8051)" fill="#4D4D4D" font-family="'ArialMT'" font-size="9px">-- m</text>
				<text id="label_70_" transform="matrix(1 0 0 1 160.892 65.8285)" fill="#808080" font-family="'ArialMT'" font-size="9px">Alt.</text>
			</g>
			<g id="speed">
				<path fill="#FFFFE6" stroke="#808080" stroke-width="0.75" stroke-miterlimit="10" d="M156.62,82.81c0,1.1-0.9,2-2,2h-46
					c-1.1,0-2-0.9-2-2v-12c0-1.1,0.9-2,2-2h46c1.1,0,2,0.9,2,2V82.81z"/>
				<text id="speed_text" transform="matrix(1 0 0 1 109.7988 80.8051)" fill="#4D4D4D" font-family="'ArialMT'" font-size="9px">-- m/s</text>
				<text id="label_69_" transform="matrix(1 0 0 1 105.6186 65.3109)" fill="#808080" font-family="'ArialMT'" font-size="9px">Speed</text>
			</g>
		</g>
		<g id="battery_gauge">
			<path fill="#FFFFFF" stroke="#4D4D4D" stroke-width="0.5132" stroke-miterlimit="10" d="M156.62,52.31c0,1.1-0.9,2-2,2h-46
				c-1.1,0-2-0.9-2-2v-14c0-1.1,0.9-2,2-2h46c1.1,0,2,0.9,2,2V52.31z"/>
			<rect id="battery_rect" x="108.62" y="38.31" fill="#00EB00" width="46" height="14"/>
			
				<text id="battery_percentage" transform="matrix(1 0 0 1 119.4199 49.8794)" fill="#FFFFFF" font-family="'ArialMT'" font-size="9px">80%</text>
		</g>
		<text id="battery" transform="matrix(1 0 0 1 105.3198 33.6605)" fill="#808080" font-family="'ArialMT'" font-size="9px">battery_%</text>
	</g>
	<g id="left">
		<g id="status">
			<g id="AP">
				
					<linearGradient id="ap_rect_00000029030378340225262940000012522923531478221194_" gradientUnits="userSpaceOnUse" x1="69.8751" y1="574.5133" x2="69.8751" y2="558.5133" gradientTransform="matrix(1 0 0 1 0 -482)">
					<stop  offset="0" style="stop-color:#00E600"/>
					<stop  offset="0.85" style="stop-color:#00E600"/>
					<stop  offset="1" style="stop-color:#008000"/>
				</linearGradient>
				
					<rect id="ap_rect" x="49.88" y="76.51" fill="url(#ap_rect_00000029030378340225262940000012522923531478221194_)" stroke="#FFFFFF" stroke-width="0.8528" stroke-miterlimit="10" width="40" height="16"/>
				<text id="ap_text" transform="matrix(1 0 0 1 55.9397 88.7588)" fill="#FFFFFF" font-family="'ArialMT'" font-size="9px">---</text>
			</g>
			<text id="status_label" transform="matrix(1 0 0 1 49.8749 73.8448)" fill="#808080" font-family="'ArialMT'" font-size="9px">Status</text>
		</g>
		<g id="link">
			
				<linearGradient id="status_rect_00000093873670470985943390000005572203937023136951_" gradientUnits="userSpaceOnUse" x1="24.0751" y1="584.5133" x2="24.0751" y2="558.5133" gradientTransform="matrix(1 0 0 1 0 -482)">
				<stop  offset="0" style="stop-color:#00E600"/>
				<stop  offset="0.91" style="stop-color:#00E600"/>
				<stop  offset="1" style="stop-color:#008000"/>
			</linearGradient>
			
				<rect id="status_rect" x="7.08" y="76.51" fill="url(#status_rect_00000093873670470985943390000005572203937023136951_)" stroke="#FFFFFF" stroke-width="0.8094" stroke-miterlimit="10" width="34" height="26"/>
			<g id="status_symbol">
				
					<line fill="none" stroke="#FFFFFF" stroke-width="2" stroke-linecap="round" stroke-miterlimit="10" x1="20.37" y1="90.01" x2="27.25" y2="90.01"/>
				<path fill="none" stroke="#FFFFFF" stroke-width="2" stroke-linecap="round" stroke-miterlimit="10" d="M21.72,93.51h-1.86
					c-1.9,0-3.44-1.57-3.44-3.5l0,0c0-1.93,1.54-3.5,3.44-3.5h1.86"/>
				<path fill="none" stroke="#FFFFFF" stroke-width="2" stroke-linecap="round" stroke-miterlimit="10" d="M26.02,86.51h1.75
					c1.9,0,3.44,1.57,3.44,3.5l0,0c0,1.93-1.54,3.5-3.44,3.5h-1.75"/>
			</g>
			<text transform="matrix(1 0 0 1 15.5785 73.8448)" fill="#808080" font-family="'ArialMT'" font-size="9px">Link</text>
		</g>
		<g id="energy">
			<g id="gauge">
				<g id="shape">
					<path fill="#FFFFFF" stroke="#706F6F" stroke-width="1.0625" stroke-miterlimit="10" d="M75.32,50.31c0,1.66-1.34,3-3,3h-58
						c-1.66,0-3-1.34-3-3v-11c0-1.66,1.34-3,3-3h58c1.66,0,3,1.34,3,3V50.31z"/>
					<path id="extend_15_" fill="#FFFFFF" stroke="#706F6F" stroke-width="1.0364" stroke-miterlimit="10" d="M79.47,47.57
						c0,1.15-0.93,2.07-2.07,2.07h-2.07v-9.33h2.07c1.14,0,2.07,0.93,2.07,2.07V47.57L79.47,47.57z"/>
				</g>
				<rect id="back" x="13.32" y="38.31" fill="#B3B3B3" width="60" height="13"/>
				<rect id="energy_rect" x="13.32" y="38.31" fill="#00EB00" width="44" height="13"/>
				<text id="energy_text" transform="matrix(1 0 0 1 31.3198 48.9525)" fill="#1D1D1B" font-family="'ArialMT'" font-size="9px">12.5</text>
			</g>
			<g>
				<text transform="matrix(1 0 0 1 10.0239 33.6605)" fill="#808080" font-family="'ArialMT'" font-size="9px">Battery_V</text>
			</g>
		</g>
	</g>
	<line fill="none" stroke="#FFFFFF" stroke-width="0.5" stroke-miterlimit="10" x1="285.91" y1="4.51" x2="285.91" y2="23.98"/>
	<text id="type" transform="matrix(1 0 0 1 105.3198 17.9701)" font-family="'Segoe'" font-size="13px">Agilex</text>
	<text id="id" transform="matrix(1 0 0 1 10.3969 19.5009)" fill="#FFFFFF" font-family="'SegoeUI-Bold'" font-size="13px">UAV_2</text>
	<path id="border" fill="none" stroke="#000000" stroke-miterlimit="10" d="M224.61,115.99c0,4.7-2.36,8.5-5.27,8.5H6.59
		c-2.92,0-5.27-3.81-5.27-8.5V8c0-4.7,2.36-8.5,5.27-8.5h212.74c2.92,0,5.27,3.81,5.27,8.5L224.61,115.99L224.61,115.99z"/>
</g>
</svg>
