<?xml version="1.0" encoding="utf-8"?>
<!-- Generator: Adobe Illustrator 26.0.3, SVG Export Plug-In . SVG Version: 6.00 Build 0)  -->
<svg version="1.1"
	 id="menu" xmlns:cc="http://creativecommons.org/ns#" xmlns:dc="http://purl.org/dc/elements/1.1/" xmlns:inkscape="http://www.inkscape.org/namespaces/inkscape" xmlns:rdf="http://www.w3.org/1999/02/22-rdf-syntax-ns#" xmlns:sodipodi="http://sodipodi.sourceforge.net/DTD/sodipodi-0.dtd" xmlns:svg="http://www.w3.org/2000/svg"
	 xmlns="http://www.w3.org/2000/svg" xmlns:xlink="http://www.w3.org/1999/xlink" x="0px" y="0px" width="468px" height="60px"
	 viewBox="0 0 468 60" enable-background="new 0 0 468 60" xml:space="preserve">
<sodipodi:namedview  bordercolor="#666666" borderopacity="1.0" id="namedview7" inkscape:current-layer="svg5" inkscape:cx="97.677549" inkscape:cy="-14.927466" inkscape:document-rotation="0" inkscape:document-units="px" inkscape:pagecheckerboard="0" inkscape:pageopacity="0.0" inkscape:pageshadow="2" inkscape:window-height="776" inkscape:window-maximized="0" inkscape:window-width="1440" inkscape:window-x="52" inkscape:window-y="25" inkscape:zoom="3.0815679" pagecolor="#ffffff" showgrid="false" units="px">
	<inkscape:grid  id="grid1503" type="xygrid"></inkscape:grid>
</sodipodi:namedview>
<path id="bg" sodipodi:nodetypes="ssssssscccss" fill="#2F2F2F" fill-opacity="0.8078" d="M15-74.4h83c2.8,0,5,2.4,5,5.5V63.4
	c0,3-2.2,5.5-5,5.5H15c-2.8,0-5-2.4-5-5.5V8.3L0-2.6l10-10.9v-55.4C10-72,12.2-74.4,15-74.4z"/>
<g id="delete_btn">
	<rect id="rect_delete" x="10" y="40.8" fill="#DD5408" fill-opacity="0.9608" width="93" height="21.1"/>
	<text id="delete" transform="matrix(1 0 0 1 51.5 56.9902)" fill="#FFFFFF" font-family="'B612-Regular'" font-size="14px">Delete</text>
</g>
<rect id="mask_deactivated" x="10" y="-10" fill="#2F2F2F" fill-opacity="0" width="93" height="21.1"/>
<rect id="rect_deactivated" x="10" y="-10" fill="#DD9408" fill-opacity="0.9608" width="93" height="21.1"/>
<text id="deactivated" transform="matrix(1 0 0 1 20.384 5.0342)" fill="#FFFFFF" font-family="'B612-Regular'" font-size="14px">Deactivated</text>
<rect id="mask_identified" x="10" y="-34.1" fill="#2F2F2F" fill-opacity="0" width="93" height="21.1"/>
<rect id="rect_identified" x="10" y="-34.1" fill="#DD9408" fill-opacity="0.9608" width="93" height="21.1"/>
<text id="identified" transform="matrix(1 0 0 1 20.384 -17.952)" fill="#FFFFFF" font-family="'B612-Regular'" font-size="14px">Identified</text>
<rect id="mask_unknown" x="10" y="-58.1" fill="#2F2F2F" fill-opacity="0" width="93" height="21.1"/>
<rect id="rect_unknown" x="10" y="-58.1" fill="#DD9408" fill-opacity="0.9608" width="93" height="21.1"/>
<text id="unknown" transform="matrix(1 0 0 1 20.384 -41.936)" fill="#FFFFFF" font-family="'B612-Regular'" font-size="14px">Unknown</text>
<g id="close_button">
	
		<rect id="close_mask" x="89.3" y="-72.8" fill="none" stroke="#FFFFFF" stroke-width="0.25" stroke-miterlimit="10" width="11.8" height="11.8"/>
	<line fill="none" stroke="#FFFFFF" stroke-miterlimit="10" x1="91.1" y1="-70.9" x2="99.2" y2="-62.9"/>
	<line fill="none" stroke="#FFFFFF" stroke-miterlimit="10" x1="91.1" y1="-62.9" x2="99.2" y2="-70.9"/>
</g>
</svg>
