<?xml version="1.0" encoding="utf-8"?>
<!-- Generator: Adobe Illustrator 26.0.3, SVG Export Plug-In . SVG Version: 6.00 Build 0)  -->
<svg version="1.1" id="Calque_1" xmlns="http://www.w3.org/2000/svg" xmlns:xlink="http://www.w3.org/1999/xlink" x="0px" y="0px"
	 width="595.28px" height="841.89px" viewBox="0 0 595.28 841.89" enable-background="new 0 0 595.28 841.89" xml:space="preserve">
<g id="contact_icon">
	<path fill="#020203" stroke="#000000" stroke-width="0.25" stroke-miterlimit="10" d="M-1.53-6.97c1.92-2.22,5.3-2.47,7.5-0.55
		s2.47,5.28,0.55,7.5C6.29,0.24,6.05,0.49,5.77,0.7l0.89,1.13c0.34-0.26,0.66-0.58,0.94-0.9c2.43-2.83,2.13-7.09-0.7-9.52
		s-7.07-2.13-9.5,0.68c-1,1.15-1.58,2.64-1.64,4.16l1.43,0.06C-2.77-4.92-2.32-6.05-1.53-6.97z"/>
	<path fill="#020203" stroke="#000000" stroke-width="0.25" stroke-miterlimit="10" d="M4.43-5.73c1.22,1.07,1.36,2.92,0.3,4.15
		L5.8-0.64C7.39-2.47,7.18-5.22,5.35-6.8S0.77-8.18-0.79-6.35c-0.49,0.57-0.83,1.26-0.98,2l1.41,0.28c0.09-0.49,0.32-0.96,0.66-1.36
		C1.34-6.63,3.2-6.78,4.43-5.73z"/>
	<path fill="#020203" stroke="#000000" stroke-width="0.25" stroke-miterlimit="10" d="M5.92,4.15C5.77,4.01,5.58,3.9,5.37,3.83
		c0.36-0.79,0.17-1.73-0.51-2.32C4.69,1.36,4.48,1.24,4.28,1.17c0.28-0.75,0.09-1.66-0.55-2.2C3.6-1.19,3.43-1.28,3.26-1.36
		L3.99-2.2c0.72-0.83,0.62-2.07-0.21-2.79S1.71-5.62,1-4.79l-2.73,3.15c-0.09-0.15-0.23-0.3-0.36-0.41
		c-0.83-0.72-2.07-0.62-2.79,0.21l-2.43,2.81C-9.08,3.02-8.86,6.11-6.8,7.88l3.22,2.79c2.05,1.77,5.14,1.55,6.92-0.51l2.79-3.22
		C6.84,6.12,6.75,4.86,5.92,4.15z M2.26,9.23c-1.24,1.45-3.45,1.6-4.9,0.36L-5.86,6.8c-1.45-1.24-1.6-3.45-0.36-4.9l2.43-2.81
		c0.19-0.23,0.55-0.26,0.77-0.06c0.23,0.21,0.26,0.55,0.06,0.77L-4.84,2l1.07,0.92l5.86-6.78c0.19-0.23,0.55-0.26,0.77-0.06
		c0.23,0.21,0.26,0.55,0.06,0.77l-1.98,2.3l-1.38,1.58l-0.26,0.3l1.07,0.94l0.26-0.3l1.38-1.58C2.2-0.13,2.56-0.17,2.79,0.04
		s0.26,0.53,0.08,0.77L1.22,2.69L2.3,3.64l0.87-1c0.19-0.23,0.55-0.26,0.77-0.06C4.16,2.79,4.2,3.13,3.99,3.35l-0.87,1L4.2,5.3
		c0.19-0.23,0.55-0.26,0.77-0.06C5.2,5.45,5.24,5.79,5.03,6.01L2.26,9.23z"/>
	<g>
		<g>
			<path fill="#020203" stroke="#000000" stroke-width="0.25" stroke-miterlimit="10" d="M0-15c-8.29,0-15,6.71-15,15s6.71,15,15,15
				S15,8.29,15,0S8.29-15,0-15z M0,13.49c-7.44,0-13.49-6.05-13.49-13.49S-7.44-13.49,0-13.49S13.49-7.44,13.49,0
				S7.44,13.49,0,13.49z"/>
		</g>
	</g>
</g>
</svg>
