<?xml version="1.0" encoding="utf-8"?>
<!-- Generator: Adobe Illustrator 26.0.3, SVG Export Plug-In . SVG Version: 6.00 Build 0)  -->
<svg version="1.1" id="Calque_1" xmlns="http://www.w3.org/2000/svg" xmlns:xlink="http://www.w3.org/1999/xlink" x="0px" y="0px"
	 width="595.28px" height="841.89px" viewBox="0 0 595.28 841.89" enable-background="new 0 0 595.28 841.89" xml:space="preserve">
<g id="remotely_icon">
	<g>
		<g>
			<path fill="#020203" stroke="#000000" stroke-width="0.25" stroke-miterlimit="10" d="M-3,0c-1.66,0-3,1.34-3,3s1.34,3,3,3
				s3-1.34,3-3S-1.34,0-3,0z M-3,4.5C-3.83,4.5-4.5,3.83-4.5,3S-3.83,1.49-3,1.49S-1.49,2.17-1.49,3S-2.17,4.5-3,4.5z"/>
		</g>
	</g>
	<g>
		<g>
			<path fill="#020203" stroke="#000000" stroke-width="0.25" stroke-miterlimit="10" d="M-3-3v1.51c2.49,0,4.5,2.02,4.5,4.5h1.51
				C3-0.3,0.3-3-3-3z"/>
		</g>
	</g>
	<g>
		<g>
			<path fill="#020203" stroke="#000000" stroke-width="0.25" stroke-miterlimit="10" d="M-3-5.99v1.51c4.15,0,7.5,3.35,7.5,7.5
				h1.51C5.99-1.96,1.96-5.99-3-5.99z"/>
		</g>
	</g>
	<g>
		<g>
			<path fill="#020203" stroke="#000000" stroke-width="0.25" stroke-miterlimit="10" d="M-3-9.01v1.51C2.81-7.5,7.5-2.81,7.5,3
				h1.51C9.01-3.62,3.62-9.01-3-9.01z"/>
		</g>
	</g>
	<g>
		<g>
			<path fill="#020203" stroke="#000000" stroke-width="0.25" stroke-miterlimit="10" d="M0-15c-8.29,0-15,6.71-15,15s6.71,15,15,15
				S15,8.29,15,0S8.29-15,0-15z M0,13.49c-7.44,0-13.49-6.05-13.49-13.49S-7.44-13.49,0-13.49S13.49-7.44,13.49,0
				S7.44,13.49,0,13.49z"/>
		</g>
	</g>
</g>
</svg>
