<?xml version="1.0" encoding="utf-8"?>
<!-- Generator: Adobe Illustrator 26.0.3, SVG Export Plug-In . SVG Version: 6.00 Build 0)  -->
<svg version="1.1" id="Calque_1" xmlns="http://www.w3.org/2000/svg" xmlns:xlink="http://www.w3.org/1999/xlink" x="0px" y="0px"
	 width="1920px" height="1080px" viewBox="0 0 1920 1080" enable-background="new 0 0 1920 1080" xml:space="preserve">
<g id="robot-actuator">
	<circle id="marker" opacity="0.6" fill="#0000FF" enable-background="new    " cx="0.4" cy="0.6" r="3.3"/>
	<g id="icon">
		
			<path id="UAV_00000013889782812750399670000003314216494764614572_" opacity="0.7" fill="#7DE1FF" stroke="#000000" stroke-width="0.5" enable-background="new    " d="
			M0.2,0.5l-20.8-17.3l20.8,3.2l20.3-3.2L0.2,0.5z"/>
		
			<path id="LWheel_00000020399685034071170660000001462164902606641572_" opacity="0.8" fill="none" stroke="#7DE1FF" stroke-linecap="round" enable-background="new    " d="
			M2.9-20.6c0,1.6-1.3,2.9-2.9,2.9s-2.9-1.3-2.9-2.9l0,0c0-1.6,1.3-2.9,2.9-2.9C1.6-23.6,2.9-22.3,2.9-20.6
			C2.9-20.7,2.9-20.6,2.9-20.6z"/>
		
			<path id="LWheel_00000040572295837824520930000010604553251669903766_" opacity="0.8" fill="none" stroke="#7DE1FF" stroke-linecap="round" enable-background="new    " d="
			M12.8-20.6c0,1.6-1.3,2.9-2.9,2.9S7-19,7-20.6l0,0c0-1.6,1.3-2.9,2.9-2.9C11.5-23.6,12.8-22.3,12.8-20.6
			C12.8-20.7,12.8-20.6,12.8-20.6z"/>
		
			<path id="LWheel_00000160889827275483883580000004567317848129487277_" opacity="0.8" fill="none" stroke="#7DE1FF" stroke-linecap="round" enable-background="new    " d="
			M-7-20.6c0,1.6-1.3,2.9-2.9,2.9s-2.9-1.3-2.9-2.9l0,0c0-1.6,1.3-2.9,2.9-2.9C-8.3-23.6-7-22.3-7-20.6C-7-20.7-7-20.6-7-20.6z"/>
		<path fill="none" stroke="#000000" stroke-miterlimit="10" d="M-4.6-13c0.1,7.8,0.1,7.8,0.1,7.8c0.3,0.2,0.9-7.7,1.7-7.7
			c0.8,0,1,7.6,1.7,7.6c0.6,0,0.9-7.4,1.6-7.4c0.7,0,1.2,7.4,1.8,7.4c0.6,0,0.6-7.3,1.3-7.4c0.7,0,1.4,7.2,1.8,7.2c0,0,0,0,0-7.4"/>
	</g>
</g>
</svg>
