<?xml version="1.0" encoding="utf-8"?>
<!-- Generator: Adobe Illustrator 26.0.3, SVG Export Plug-In . SVG Version: 6.00 Build 0)  -->
<svg version="1.1" id="Calque_1" xmlns="http://www.w3.org/2000/svg" xmlns:xlink="http://www.w3.org/1999/xlink" x="0px" y="0px"
	 width="800px" height="800px" viewBox="0 0 800 800" style="enable-background:new 0 0 800 800;" xml:space="preserve">
<style type="text/css">
	.st0{fill:#3C3C3B;stroke:#E2E2E4;stroke-miterlimit:10;}
	.st1{fill:none;stroke:#FFFFFF;stroke-width:3;stroke-miterlimit:128;}
	.st2{fill:#FFFFFF;}
	.st3{font-family:'ArialMT';}
	.st4{font-size:12px;}
	.st5{fill:#00CC00;}
	.st6{fill:#FF0000;}
	.st7{fill:#EBB223;}
	.st8{fill:#4027F5;}
	.st9{fill:#317CE8;}
	.st10{fill:#29B9FF;}
	.st11{fill:#27E8F5;}
	.st12{fill:#9310B3;}
	.st13{fill:#5CAD9D;}
	.st14{fill:#FFC840;}
	.st15{fill:#D730FF;}
	.st16{fill:#12CC8B;}
	.st17{fill:#FF6200;}
	.st18{fill:#FF0209;}
	.st19{fill:#FF0209;stroke:#000000;stroke-miterlimit:10;}
	.st20{opacity:0.1;fill:#FF6200;enable-background:new    ;}
	.st21{fill:#AAC4CC;}
	.st22{fill:none;stroke:#D9D9D9;stroke-width:0.5;stroke-miterlimit:10;}
	.st23{font-family:'MyriadPro-Regular';}
	.st24{font-size:7px;}
	.st25{fill:#00B374;}
	.st26{fill:#317CE8;stroke:#FFFFFF;stroke-width:0.5;stroke-miterlimit:10;}
	.st27{fill:#27E8F5;stroke:#FFFFFF;stroke-width:0.5;stroke-miterlimit:10;}
	.st28{fill:#29B9FF;stroke:#FFFFFF;stroke-width:0.5;stroke-miterlimit:10;}
	.st29{fill:#4027F5;stroke:#FFFFFF;stroke-width:0.25;}
	.st30{fill:none;stroke:#FFFFFF;stroke-width:2;stroke-linecap:round;stroke-miterlimit:133.3333;}
	.st31{fill:none;stroke:#FFFFFF;stroke-width:2;stroke-linecap:round;stroke-linejoin:round;stroke-miterlimit:133.3333;}
	.st32{fill:none;stroke:#FFFFFF;stroke-width:3;stroke-linecap:round;stroke-linejoin:round;stroke-miterlimit:133.3333;}
	.st33{font-size:24px;}
	.st34{fill:none;stroke:#E2E2E4;stroke-miterlimit:10;}
	.st35{fill:#1D1D1B;stroke:#E2E2E4;stroke-miterlimit:10;}
	.st36{opacity:0.2;}
	.st37{fill:#E2E2E4;}
	.st38{font-size:12.161px;}
	.st39{opacity:0.2;fill:#FFFFFF;enable-background:new    ;}
	.st40{enable-background:new    ;}
	.st41{fill:#3C3C3B;stroke:#000000;stroke-width:0.5;stroke-miterlimit:10;}
	.st42{font-family:'Helvetica-Bold';}
	.st43{font-size:7.5833px;}
	.st44{fill:#4CAC33;}
	.st45{fill:#3872B7;stroke:#FFFFFF;stroke-width:0.25;}
	.st46{font-size:4.0485px;}
	.st47{opacity:0.5;}
	.st48{opacity:0.5;fill:#FFFFFF;enable-background:new    ;}
	.st49{font-size:5.6243px;}
	.st50{fill:#545454;stroke:#D9D9D9;stroke-width:0.25;stroke-miterlimit:10;}
	.st51{font-size:3.3326px;}
	.st52{fill:none;stroke:#FFFFFF;stroke-width:0.5;stroke-linecap:round;stroke-miterlimit:133.3333;}
	.st53{fill:none;stroke:#FFFFFF;stroke-miterlimit:128;}
	.st54{fill:#3872B7;}
	.st55{fill:url(#name_bg_00000052802937975515127240000007116671592076914862_);}
	.st56{fill:#1D1D1B;}
	.st57{font-family:'Segoe';}
	.st58{font-size:13.2281px;}
	.st59{font-family:'Helvetica';}
	.st60{fill:none;stroke:#000000;stroke-width:4;stroke-miterlimit:10;}
</style>
<rect y="0" class="st0" width="1768.6" height="800"/>
<g>
	<path id="ctrl_manual" class="st1" d="M54,136.3v-5h19.8v5 M67.1,118.2v13.2 M60.6,118.2v13.2 M73.7,108.2c0,5.5-4.4,9.9-9.9,9.9
		s-9.9-4.4-9.9-9.9s4.4-9.9,9.9-9.9S73.7,102.9,73.7,108.2z M83.6,147.8H44.1c-1.8,0-3.3-1.5-3.3-3.3v-3.3c0-1.8,1.5-3.3,3.3-3.3
		h39.5c1.8,0,3.3,1.5,3.3,3.3v3.3C86.9,146.3,85.4,147.8,83.6,147.8z"/>
	<g id="ctrl_auto">
		<path class="st2" d="M154.6,123.5h-7.2c-2,0-3.5,1.6-3.5,3.5v21.4h3.5v-8.9h7.2v8.9h3.5V127C158.2,125.1,156.6,123.5,154.6,123.5z
			 M147.5,136v-8.9h7.2v8.9H147.5z"/>
		<path class="st2" d="M136.8,143.1c-6.7,0-12.8-3.3-16.5-8.9h9.3v-3.5h-14.3V145h3.5v-6.6c4.4,5.3,10.9,8.4,17.9,8.4v-3.7
			L136.8,143.1L136.8,143.1z"/>
		<path class="st2" d="M143.9,112.8h9.3c-5.9-9.1-18.1-11.6-27.2-5.7c-5.6,3.6-8.9,9.8-8.9,16.5h-3.5c0-12.8,10.4-23.2,23.2-23.2
			c6.9,0,13.4,3,17.8,8.4v-6.6h3.5v14.3h-14.2L143.9,112.8L143.9,112.8z"/>
	</g>
	<path id="ctrl_wait" class="st2" d="M232.4,127c0,1.1-0.9,2-2,2s-2-0.9-2-2c0-10.9-8.9-19.8-19.8-19.8c-1.1,0-2-0.9-2-2s0.9-2,2-2
		C221.7,103.4,232.4,113.9,232.4,127z M216.5,129c1.1,0,2-0.9,2-2c0-1.1-0.9-2-2-2H212c-0.4-0.6-0.9-1.1-1.4-1.4v-6.4
		c0-1.1-0.9-2-2-2s-2,0.9-2,2v6.5c-1.9,1.1-2.6,3.5-1.4,5.4c1.1,1.9,3.5,2.6,5.4,1.4c0.6-0.4,1.1-0.9,1.4-1.4L216.5,129L216.5,129z
		 M188.5,116.8c-1.1,0-2,0.9-2,2s0.9,2,2,2s2-0.9,2-2S189.6,116.8,188.5,116.8L188.5,116.8z M188.8,127c0-1.1-0.9-2-2-2s-2,0.9-2,2
		c0,1.1,0.9,2,2,2S188.8,128.2,188.8,127z M208.6,146.8c-1.1,0-2,0.9-2,2s0.9,2,2,2s2-0.9,2-2S209.7,146.8,208.6,146.8z
		 M193.2,109.7c-1.1,0-2,0.9-2,2s0.9,2,2,2s2-0.9,2-2l0,0C195.2,110.5,194.4,109.7,193.2,109.7z M200.2,105c-1.1,0-2,0.9-2,2
		s0.9,2,2,2s2-0.9,2-2l0,0C202.2,105.8,201.4,105,200.2,105z M188.5,133.4c-1.1,0-2,0.9-2,2s0.9,2,2,2s2-0.9,2-2
		C190.5,134.3,189.6,133.4,188.5,133.4L188.5,133.4z M193.2,140.5c-1.1,0-2,0.9-2,2s0.9,2,2,2s2-0.9,2-2S194.4,140.5,193.2,140.5z
		 M200.2,145.2c-1.1,0-2,0.9-2,2s0.9,2,2,2s2-0.9,2-2S201.4,145.2,200.2,145.2L200.2,145.2z M228.7,133.4c-1.1,0-2,0.9-2,2
		s0.9,2,2,2s2-0.9,2-2C230.7,134.3,229.8,133.4,228.7,133.4L228.7,133.4z M224,140.5c-1.1,0-2,0.9-2,2s0.9,2,2,2s2-0.9,2-2
		S225.1,140.5,224,140.5z M217,145.2c-1.1,0-2,0.9-2,2s0.9,2,2,2s2-0.9,2-2S218,145.2,217,145.2L217,145.2z"/>
	<text transform="matrix(1 0 0 1 40.0852 77.2358)" class="st2 st3 st4">Teleopéré / Controle automatique // attente</text>
</g>
<g>
	<path id="status_ok" class="st5" d="M66.3,265.7c-11,0-20,9-20,20s9,20,20,20s20-9,20-20S77.3,265.7,66.3,265.7z M62.2,296.2
		l-9.3-9.5l3-3l6.5,6.5l14-14l3,3L62.2,296.2z"/>
	<path id="status_error" class="st6" d="M151.5,266.2c-11.1,0-20,8.9-20,20c0,11,8.9,20,20,20s20-9,20-20
		C171.5,275.1,162.6,266.2,151.5,266.2z M162.2,293.9l-3,2.9l-7.7-7.7l-7.7,7.7l-3-2.9l7.7-7.7l-7.7-7.7l2.9-2.9l7.7,7.7l7.7-7.7
		l3,2.9l-7.7,7.7L162.2,293.9z"/>
	<path id="status_warning" class="st7" d="M108.4,266.2c-11,0-20,9-20,20s9,20,20,20s20-9,20-20S119.4,266.2,108.4,266.2z
		 M110.9,297.1h-5v-13.3h5V297.1z M110.9,280.4h-5v-5h5V280.4z"/>
	<text transform="matrix(1 0 0 1 45.2068 232.3154)" class="st2 st3 st4">ok, nok, warning</text>
	<text transform="matrix(1 0 0 1 36.7961 211.109)" class="st2 st3 st4">Etats satellittes</text>
</g>
<g id="palette">
	<text transform="matrix(1 0 0 1 59.9285 384.8015)" class="st2 st3 st4">palette alliés</text>
	<text transform="matrix(1 0 0 1 58.0998 439.2477)" class="st2 st3 st4">opérateur sécurité</text>
	<text transform="matrix(1 0 0 1 228.3801 384.8015)" class="st2 st3 st4">palette carte</text>
	<text transform="matrix(1 0 0 1 221.2909 453.4207)" class="st2 st3 st4">Palette pieges</text>
	<rect x="59.9" y="397.1" class="st8" width="27.6" height="20.9"/>
	<rect x="94.1" y="397.1" class="st9" width="27.6" height="20.9"/>
	<rect x="128.7" y="397.1" class="st10" width="27.6" height="20.9"/>
	<rect x="164.4" y="397.1" class="st11" width="27.6" height="20.9"/>
	<rect x="228.4" y="397.1" class="st12" width="27.6" height="20.9"/>
	<rect x="58.1" y="445.4" class="st13" width="27.6" height="20.9"/>
	<rect x="299.4" y="397.1" class="st14" width="27.6" height="20.9"/>
	<rect x="262.5" y="397.1" class="st15" width="27.6" height="20.9"/>
	<rect x="333.5" y="397.1" class="st16" width="27.6" height="20.9"/>
	<rect x="401.4" y="397.1" class="st17" width="27.6" height="20.9"/>
	
		<rect x="231.2" y="463.9" transform="matrix(0.7255 -0.6883 0.6883 0.7255 -259.5018 295.079)" class="st18" width="17.8" height="17.8"/>
	
		<rect x="280.1" y="463.9" transform="matrix(0.7255 -0.6883 0.6883 0.7255 -246.0972 328.684)" class="st19" width="17.8" height="17.8"/>
	
		<rect x="338" y="463" transform="matrix(0.7172 -0.6969 0.6969 0.7172 -230.9553 375.6306)" class="st20" width="18.7" height="18.7"/>
	<text transform="matrix(1 0 0 1 218.4533 508.0101)" class="st2 st3 st4">inconnu</text>
	<text transform="matrix(1 0 0 1 272.6112 508.0104)" class="st2 st3 st4">identifié</text>
	<text transform="matrix(1 0 0 1 321.047 508.0096)" class="st2 st3 st4">désactivé</text>
	<text transform="matrix(1 0 0 1 403.7999 381.309)" class="st2 st3 st4">impondérabe</text>
	<text transform="matrix(1 0 0 1 369.4001 433.4324)" class="st2 st3 st4">terminé</text>
	<text transform="matrix(1 0 0 1 512.7268 431.0448)" class="st2 st3 st4">palette tâches</text>
	<text transform="matrix(1 0 0 1 513.5193 453.4207)" class="st2 st3 st4">en attente - acceptée - refusée - en cours - terminée</text>
	<rect x="527" y="464.7" class="st21" width="27.6" height="20.9"/>
	<rect x="643.7" y="464.7" class="st6" width="27.6" height="20.9"/>
	<rect x="587" y="464.7" class="st5" width="27.6" height="20.9"/>
	<rect x="696.9" y="464.7" class="st11" width="27.6" height="20.9"/>
	<rect x="750.8" y="464.7" class="st11" width="27.6" height="20.9"/>
	<path class="st22" d="M598,285.1h-12v-6.7h16.3v2.5C602.3,283.2,600.4,285.1,598,285.1z"/>
	<text transform="matrix(1 0 0 1 238.3013 475.1544)" class="st23 st24">?</text>
	<text transform="matrix(1 0 0 1 280.5504 475.1542)" class="st23 st24">2353</text>
	<rect x="367.9" y="397" class="st25" width="27.6" height="20.9"/>
</g>
<g id="icones_stalittes">
	<g id="ugv_icon">
		<rect x="93" y="590.9" pointer-events="none" class="st26" width="22.1" height="4.6"/>
		<ellipse pointer-events="none" class="st26" cx="97.6" cy="597.1" rx="1.8" ry="1.7"/>
		<ellipse pointer-events="none" class="st26" cx="110.5" cy="597.1" rx="1.8" ry="1.7"/>
	</g>
	<path id="uav_icon" pointer-events="none" class="st26" d="M114,610.6L114,610.6L114,610.6l-9.9,8.9l-9.9-8.9l0,0l0,0l9.9,4.8
		L114,610.6z"/>
	<g id="ugv_icon_00000089539696186155437590000014645201544070329741_">
		<rect x="163.3" y="588.6" pointer-events="none" class="st27" width="22.1" height="4.6"/>
		<ellipse pointer-events="none" class="st27" cx="167.9" cy="594.8" rx="1.8" ry="1.7"/>
		<ellipse pointer-events="none" class="st27" cx="180.8" cy="594.8" rx="1.8" ry="1.7"/>
	</g>
	<path id="uav_icon_00000024702319139558247580000015323652903770336445_" pointer-events="none" class="st27" d="M184.3,608.3
		L184.3,608.3L184.3,608.3l-9.9,8.9l-9.9-8.9l0,0l0,0l9.9,4.8L184.3,608.3z"/>
	<g id="ugv_icon_00000150783552129727469750000007778839578047786158_">
		<rect x="127.6" y="590.9" pointer-events="none" class="st28" width="22.1" height="4.6"/>
		<ellipse pointer-events="none" class="st28" cx="132.2" cy="597.1" rx="1.8" ry="1.7"/>
		<ellipse pointer-events="none" class="st28" cx="145.1" cy="597.1" rx="1.8" ry="1.7"/>
	</g>
	<path id="uav_icon_00000093145542069274974870000016251165323839529900_" pointer-events="none" class="st28" d="M148.6,610.6
		L148.6,610.6L148.6,610.6l-9.9,8.9l-9.9-8.9l0,0l0,0l9.9,4.8L148.6,610.6z"/>
	<g id="vab_icon">
		<rect x="60.2" y="554.7" pointer-events="none" class="st29" width="32.5" height="14.6"/>
		<ellipse pointer-events="none" class="st29" cx="66.9" cy="571.8" rx="2.7" ry="2.4"/>
		<ellipse pointer-events="none" class="st29" cx="85.9" cy="571.8" rx="2.7" ry="2.4"/>
	</g>
	<text transform="matrix(1 0 0 1 51.9876 539.1002)" class="st2 st3 st4">Icones satellites</text>
</g>
<g id="icons">
	<text transform="matrix(1 0 0 1 250.3326 243.2302)" class="st2 st3 st4">Tasks</text>
	<text transform="matrix(1 0 0 1 250.3326 257.6302)" class="st2 st3 st4">add remove</text>
	<path id="task_add" class="st30" d="M369.4,257h-3 M366.4,257h-3 M366.4,257v-3 M366.4,257v3 M371.5,266.2h-10.3
		c-2.2,0-4.1-1.8-4.1-4.1v-10.3c0-2.2,1.8-4.1,4.1-4.1h10.3c2.2,0,4.1,1.8,4.1,4.1v10.3C375.6,264.4,373.7,266.2,371.5,266.2z"/>
	<g id="task_remove">
		<path class="st31" d="M399.3,259.1v-7.6c0-1.8-1.4-3.2-3.2-3.2h-5.4 M399.3,259.1l-7,6.5 M399.3,259.1h-4.9c-1.2,0-2.2,1-2.2,2.2
			v4.3 M392.3,265.6h-7c-1.8,0-3.2-1.4-3.2-3.2V257"/>
		<path class="st32" d="M382,248.3l2.7,2.7 M387.4,253.7l-2.7-2.7 M384.7,251l2.7-2.7 M384.7,251l-2.7,2.7"/>
	</g>
	<text transform="matrix(1 0 0 1 249.6501 217.7737)" class="st2 st3 st33">Icones</text>
</g>
<g id="trap_detect">
	<rect x="90.3" y="643.9" class="st34" width="44.4" height="44.4"/>
	<path class="st35" d="M168.2,666.9H56.8c-5.7,0-10.4-4.4-10.4-9.9v-22.2c0-5.3,4.6-9.6,10.4-9.6h111.4c5.7,0,10.4,4.4,10.4,9.8
		v22.2C178.4,662.5,173.9,666.9,168.2,666.9z"/>
	<path class="st35" d="M168.6,688.3H56.3c-5.8,0-10.4-4.7-10.4-10.4v-23.6c0-5.8,4.7-10.4,10.4-10.4h112.3c5.8,0,10.4,4.7,10.4,10.4
		v23.6C179,683.7,174.4,688.3,168.6,688.3z"/>
	<path class="st35" d="M168.7,688.1H57.3c-5.7,0-10.4-4.7-10.4-10.4v-23.6c0-10.1-0.5-10.1,10.4-10.4h111.4
		c5.7,0,10.4,4.7,10.4,10.4v23.6C179,683.5,174.4,688.1,168.7,688.1z"/>
	<path class="st34" d="M45.9,652.8v-19.2c0-4.7,4.7-8.5,10.4-8.5h112.3c5.8,0,10.4,3.8,10.4,8.5v19.2"/>
	<g id="show">
		<path class="st2" d="M68.6,662.7c-12.5,0-16.2,10.8-16.3,10.9l-0.2,0.5l0.2,0.5c0,0.1,3.8,10.9,16.3,10.9s16.2-10.8,16.3-10.9
			l0.2-0.5l-0.2-0.5C84.8,673.5,81,662.7,68.6,662.7z M68.6,680.7c-3.6,0-6.5-2.9-6.5-6.5s2.9-6.5,6.5-6.5s6.5,2.9,6.5,6.5
			S72.2,680.7,68.6,680.7z"/>
		<path class="st2" d="M68.6,670.9c-1.8,0-3.3,1.5-3.3,3.3s1.5,3.3,3.3,3.3s3.3-1.5,3.3-3.3S70.3,670.9,68.6,670.9z"/>
	</g>
	<g id="db" class="st36">
		<path class="st2" d="M166.9,664.2c0-2.9-4.8-5.3-10.5-5.3s-10.5,2.4-10.5,5.3v2.6c0,2.9,4.8,5.3,10.5,5.3s10.5-2.4,10.5-5.3V664.2
			z M156.4,681.3c-5.7,0-10.5-2.4-10.5-5.3v3.9c0,2.9,4.8,5.3,10.5,5.3s10.5-2.4,10.5-5.3V676C166.9,678.9,162.1,681.3,156.4,681.3z
			"/>
		<path class="st2" d="M166.9,669.5c0,2.9-4.8,5.3-10.5,5.3s-10.5-2.4-10.5-5.3v3.9c0,2.9,4.8,5.3,10.5,5.3s10.5-2.4,10.5-5.3V669.5
			z"/>
		<circle class="st37" cx="162.5" cy="679.9" r="5.6"/>
		<path d="M166.4,683.1l-0.7,0.7c-0.2,0.2-0.4,0.2-0.6,0l-6.4-6.4c-0.2-0.2-0.2-0.4,0-0.6l0.7-0.7c0.2-0.2,0.4-0.2,0.6,0l6.4,6.4
			C166.6,682.7,166.6,682.9,166.4,683.1z"/>
		<path d="M165.7,676.1l0.7,0.7c0.2,0.2,0.2,0.4,0,0.6l-6.4,6.4c-0.2,0.2-0.4,0.2-0.6,0l-0.7-0.7c-0.2-0.2-0.2-0.4,0-0.6l6.4-6.4
			C165.3,675.9,165.5,675.9,165.7,676.1z"/>
	</g>
	<text transform="matrix(1 0 0 1 101.7514 655.8915)" class="st2 st3 st38">stop</text>
	<path id="hide_00000149339459138346963910000013382059317078617514_" class="st39" d="M106.3,672.5l-6-6c-2.4,2.6-3.3,5.2-3.3,5.2
		l-0.2,0.5l0.2,0.5c0,0.1,3.6,10.4,15.5,10.4c1.5,0,2.8-0.2,4-0.4l-4.3-4.3C109,678.3,106.4,675.7,106.3,672.5L106.3,672.5z
		 M112.5,661.3c-2.9,0-5.3,0.6-7.3,1.6l-5.8-5.8l-2.2,2.2l28.1,28.1l2.2-2.2l-5.2-5.2c4.1-3.1,5.6-7.2,5.6-7.3l0.2-0.5l-0.2-0.5
		C128,671.6,124.4,661.3,112.5,661.3z M115.5,673.1c0.3-1.1,0-2.2-0.8-3.1s-2-1.1-3.1-0.8l-2.4-2.4c1-0.6,2.1-0.9,3.2-0.9
		c3.4,0,6.3,2.8,6.3,6.3c0,1.1-0.3,2.2-0.9,3.2L115.5,673.1L115.5,673.1z"/>
	<text transform="matrix(1 0 0 1 140.6039 655.8915)" class="st2 st3 st38">ignore</text>
	<text transform="matrix(1 0 0 1 52.1439 655.33)" class="st2 st3 st38">detect</text>
	<text transform="matrix(1 0 0 1 52.7475 637.9774)" class="st2 st3 st38">trap detection</text>
</g>
<g id="trap_stop">
	<rect x="239.3" y="645" class="st34" width="43.8" height="43.8"/>
	<path class="st35" d="M316.6,688.8H205.8c-5.7,0-10.3-4.6-10.3-10.3v-23.3c0-5.7,4.6-10.3,10.3-10.3h110.8
		c5.7,0,10.3,4.6,10.3,10.3v23.3C326.8,684.2,322.3,688.8,316.6,688.8z"/>
	<g id="show_00000165949898754802178630000008981432343393465003_" class="st36">
		<path class="st2" d="M217.9,663.5c-12.3,0-16,10.7-16,10.8l-0.2,0.5l0.2,0.5c0,0.1,3.7,10.8,16,10.8s16-10.7,16-10.8l0.2-0.5
			l-0.2-0.5C233.9,674.2,230.2,663.5,217.9,663.5z M217.9,681.2c-3.6,0-6.4-2.9-6.4-6.4c0-3.6,2.9-6.4,6.4-6.4s6.4,2.9,6.4,6.4
			C224.3,678.4,221.4,681.2,217.9,681.2z"/>
		<path class="st2" d="M217.9,671.6c-1.7,0-3.2,1.5-3.2,3.2s1.5,3.2,3.2,3.2s3.2-1.5,3.2-3.2S219.6,671.6,217.9,671.6z"/>
	</g>
	<g id="db_00000083795993442586194760000007731622011708591250_" class="st36">
		<path class="st2" d="M314.9,665c0-2.8-4.8-5.2-10.4-5.2s-10.4,2.4-10.4,5.2v2.6c0,2.8,4.8,5.2,10.4,5.2s10.4-2.4,10.4-5.2V665z
			 M304.5,681.9c-5.6,0-10.4-2.4-10.4-5.2v3.9c0,2.8,4.8,5.2,10.4,5.2s10.4-2.4,10.4-5.2v-3.9C314.9,679.5,310.1,681.9,304.5,681.9z
			"/>
		<path class="st2" d="M314.9,670.2c0,2.8-4.8,5.2-10.4,5.2s-10.4-2.4-10.4-5.2v3.9c0,2.8,4.8,5.2,10.4,5.2s10.4-2.4,10.4-5.2V670.2
			z"/>
		<circle class="st37" cx="310.6" cy="680.5" r="5.5"/>
		<path d="M314.1,683.9L314,684c-0.3,0.3-0.8,0.3-1.2,0l-5.8-5.8c-0.3-0.3-0.3-0.8,0-1.2l0.1-0.1c0.3-0.3,0.8-0.3,1.2,0l5.8,5.8
			C314.5,683.1,314.5,683.6,314.1,683.9z"/>
		<path d="M314,677l0.1,0.1c0.3,0.3,0.3,0.8,0,1.2l-5.8,5.8c-0.3,0.3-0.8,0.3-1.2,0L307,684c-0.3-0.3-0.3-0.8,0-1.2l5.8-5.8
			C313.1,676.7,313.7,676.7,314,677z"/>
	</g>
	<text transform="matrix(1 0 0 1 250.6154 656.7908)" class="st2 st3 st4">stop</text>
	<path id="hide_00000084497533983518096870000010487501935273778307_" class="st2" d="M255.1,673.2l-6-6c-2.3,2.6-3.2,5.1-3.2,5.2
		l-0.2,0.5l0.2,0.5c0,0.1,3.6,10.3,15.3,10.3c1.4,0,2.7-0.2,3.9-0.4l-4.2-4.2C257.8,678.9,255.2,676.4,255.1,673.2L255.1,673.2z
		 M261.2,662.1c-2.9,0-5.2,0.6-7.2,1.5l-5.7-5.7l-2.2,2.2l27.8,27.8l2.2-2.2l-5.1-5.1c4.1-3,5.5-7.2,5.5-7.2l0.2-0.5l-0.2-0.5
		C276.5,672.3,273,662.1,261.2,662.1z M264.1,673.8c0.3-1,0-2.2-0.8-3s-2-1-3-0.8l-2.3-2.3c1-0.6,2-0.9,3.2-0.9
		c3.4,0,6.2,2.8,6.2,6.2c0,1.1-0.3,2.2-0.9,3.2L264.1,673.8L264.1,673.8z"/>
	<text transform="matrix(1 0 0 1 288.9533 656.791)" class="st2 st3 st4">ignore</text>
	<text transform="matrix(1 0 0 1 201.0301 656.7904)" class="st2 st3 st4">detect</text>
</g>
<g id="trap_">
	<rect x="381.7" y="644" class="st34" width="43.8" height="43.8"/>
	<path class="st35" d="M459,687.8H348.2c-5.7,0-10.3-4.6-10.3-10.3v-23.3c0-5.7,4.6-10.3,10.3-10.3H459c5.7,0,10.3,4.6,10.3,10.3
		v23.3C469.2,683.2,464.7,687.8,459,687.8z"/>
	<g id="show_00000017496945215404984410000012264574128429004990_" class="st36">
		<path class="st2" d="M360.3,662.6c-12.3,0-16,10.7-16,10.8l-0.2,0.5l0.2,0.5c0,0.1,3.7,10.8,16,10.8s16-10.7,16-10.8l0.2-0.5
			l-0.2-0.5C376.3,673.2,372.6,662.6,360.3,662.6z M360.3,680.3c-3.6,0-6.4-2.9-6.4-6.4c0-3.6,2.9-6.4,6.4-6.4
			c3.6,0,6.4,2.9,6.4,6.4C366.7,677.4,363.8,680.3,360.3,680.3z"/>
		<path class="st2" d="M360.3,670.6c-1.7,0-3.2,1.5-3.2,3.2s1.5,3.2,3.2,3.2s3.2-1.5,3.2-3.2S362,670.6,360.3,670.6z"/>
	</g>
	<g id="db_00000054252290590414854810000008561296020087381134_">
		<path class="st2" d="M457.3,664c0-2.8-4.8-5.2-10.4-5.2s-10.4,2.4-10.4,5.2v2.6c0,2.8,4.8,5.2,10.4,5.2s10.4-2.4,10.4-5.2V664z
			 M446.9,680.9c-5.6,0-10.4-2.4-10.4-5.2v3.9c0,2.8,4.8,5.2,10.4,5.2s10.4-2.4,10.4-5.2v-3.9C457.3,678.5,452.5,680.9,446.9,680.9z
			"/>
		<path class="st2" d="M457.3,669.2c0,2.8-4.8,5.2-10.4,5.2s-10.4-2.4-10.4-5.2v3.9c0,2.8,4.8,5.2,10.4,5.2s10.4-2.4,10.4-5.2V669.2
			z"/>
		<circle class="st37" cx="453" cy="679.6" r="5.5"/>
		<path d="M456.5,683l-0.1,0.1c-0.3,0.3-0.8,0.3-1.2,0l-5.8-5.8c-0.3-0.3-0.3-0.8,0-1.2l0.1-0.1c0.3-0.3,0.8-0.3,1.2,0l5.8,5.8
			C456.8,682.1,456.8,682.6,456.5,683z"/>
		<path d="M456.4,676l0.1,0.1c0.3,0.3,0.3,0.8,0,1.2l-5.8,5.8c-0.3,0.3-0.8,0.3-1.2,0l-0.1-0.1c-0.3-0.3-0.3-0.8,0-1.2l5.8-5.8
			C455.5,675.7,456.1,675.7,456.4,676z"/>
	</g>
	<text transform="matrix(1 0 0 1 393.0094 655.8372)" class="st2 st3 st4">stop</text>
	<path id="hide_00000178918549566979541180000015964316482250493325_" class="st39" d="M397.5,672.3l-6-6c-2.3,2.6-3.2,5.1-3.2,5.2
		l-0.2,0.5l0.2,0.5c0,0.1,3.6,10.3,15.3,10.3c1.4,0,2.7-0.2,3.9-0.4l-4.2-4.2C400.1,677.9,397.6,675.4,397.5,672.3L397.5,672.3z
		 M403.6,661.2c-2.9,0-5.2,0.6-7.2,1.5l-5.7-5.7l-2.2,2.2l27.8,27.8l2.2-2.2l-5.1-5.1c4.1-3,5.5-7.2,5.5-7.2l0.2-0.5l-0.2-0.5
		C418.9,671.4,415.4,661.2,403.6,661.2z M406.5,672.8c0.3-1,0-2.2-0.8-3s-2-1-3-0.8l-2.3-2.3c1-0.6,2-0.9,3.2-0.9
		c3.4,0,6.2,2.8,6.2,6.2c0,1.1-0.3,2.2-0.9,3.2L406.5,672.8L406.5,672.8z"/>
	<text transform="matrix(1 0 0 1 431.3474 655.8375)" class="st2 st3 st4">ignore</text>
	<text transform="matrix(1 0 0 1 343.4241 655.8369)" class="st2 st3 st4">detect</text>
</g>
<text transform="matrix(1 0 0 1 576.1827 629.4081)" class="st2 st3 st4">add remove</text>
<path id="task_add_00000147190891159625291690000003280520449165084847_" class="st30" d="M693.1,629.1h-3.2 M689.9,629.1h-3.2
	 M689.9,629.1v-2.9 M689.9,629.1v2.9 M695.3,638h-11c-2.4,0-4.4-1.7-4.4-4v-10c0-2.1,1.9-4,4.4-4h11c2.4,0,4.4,1.7,4.4,4v10
	C699.7,636.2,697.7,638,695.3,638z"/>
<g id="task_remove_00000135657187697200909950000017086343493350258587_">
	<path class="st31" d="M725.2,631.1v-7.4c0-1.7-1.5-3.1-3.4-3.1h-5.8 M725.2,631.1l-7.5,6.3 M725.2,631.1h-5.3c-1.3,0-2.4,1-2.4,2.1
		v4.2 M717.6,637.4h-7.5c-1.9,0-3.4-1.4-3.4-3.1v-5.2"/>
	<path class="st32" d="M706.6,620.7l2.9,2.6 M712.4,625.9l-2.9-2.6 M709.5,623.3l2.9-2.6 M709.5,623.3l-2.9,2.6"/>
</g>
<text transform="matrix(1 0 0 1 575.5001 659.4151)" class="st40"><tspan x="0" y="0" class="st2 st3 st4">goto</tspan><tspan x="0" y="14.4" class="st2 st3 st4">identify</tspan></text>
<text transform="matrix(1 0 0 1 575.1999 686.4934)" class="st40"><tspan x="0" y="0" class="st2 st3 st4">wait</tspan><tspan x="0" y="14.4" class="st2 st3 st4">explore</tspan><tspan x="0" y="28.8" class="st2 st3 st4">deactivate trap T0 (contact/distance/laser)</tspan></text>
<text transform="matrix(1 0 0 1 575.5002 589.5516)" class="st2 st3 st33">Tâches</text>
<text transform="matrix(1 0 0 1 526.763 223.7235)" class="st2 st3 st33">Strips</text>
<g id="strip_container">
	<path id="strip_container_bg" class="st41" d="M687.1,359c0,4.8-1.8,8.6-4,8.6H524.1c-2.2,0-4-3.8-4-8.6V250.1c0-4.8,1.8-8.6,4-8.6
		h159.1c2.2,0,4,3.8,4,8.6L687.1,359L687.1,359z"/>
	<g id="strip">
		<path id="strip_bg" class="st22" d="M681.8,300.3H526.3c-1.9,0-3.4-2.1-3.4-4.6V276c0-2.6,1.6-4.6,3.4-4.6h35.1h120.3
			c1.9,0,3.4,2.1,3.4,4.6v19.7C685.2,298.3,683.7,300.3,681.8,300.3z"/>
		<line class="st22" x1="575.4" y1="300.3" x2="575.3" y2="271.4"/>
		<line class="st22" x1="638.6" y1="299.7" x2="638.6" y2="271.3"/>
		<g id="strip_monitor_group">
			<text id="strip_label" transform="matrix(1 0 0 1 527.2342 280.389)" class="st2 st42 st43">BNX8</text>
			<path id="strip_status_ok" class="st44" d="M564.7,273.2c-3.2,0-5.8,2.6-5.8,5.8s2.6,5.8,5.8,5.8s5.8-2.6,5.8-5.8
				S567.9,273.2,564.7,273.2z M563.5,282.1l-2.7-2.8l0.9-0.9l1.9,1.9l4.1-4.1l0.9,0.9L563.5,282.1z"/>
			<g id="strip_ctrl_group">
				<g id="ctrl_auto_">
					<path class="st2" d="M568.9,292.1h-1.6c-0.4,0-0.8,0.4-0.8,0.8v4.7h0.8v-2h1.6v2h0.8v-4.7C569.7,292.5,569.3,292.1,568.9,292.1
						z M567.3,294.9v-2h1.6v2H567.3z"/>
					<path class="st2" d="M564.9,296.4c-1.5,0-2.8-0.7-3.6-2h2.1v-0.7h-3.2v3.2h0.8v-1.5c1,1.2,2.4,1.9,3.9,1.9V296.4L564.9,296.4z"
						/>
					<path class="st2" d="M566.5,289.7h2.1c-1.3-2-4-2.6-6-1.3c-1.2,0.8-2,2.2-2,3.6h-0.8c0-2.8,2.3-5.1,5.1-5.1
						c1.5,0,3,0.7,3.9,1.9v-1.5h0.8v3.2h-3.1V289.7L566.5,289.7z"/>
				</g>
			</g>
			<g id="strip_icon">
				<rect x="526.2" y="288.1" pointer-events="none" class="st45" width="22.1" height="4.6"/>
				<ellipse pointer-events="none" class="st45" cx="530.8" cy="294.3" rx="1.8" ry="1.7"/>
				<ellipse pointer-events="none" class="st45" cx="543.7" cy="294.3" rx="1.8" ry="1.7"/>
			</g>
		</g>
		<g id="trap_group">
			<g id="trap_detection_selector">
				<g id="detect_icon">
					<path class="st2" d="M646.7,289.5c-4.2,0-5.4,3.6-5.4,3.6l-0.1,0.2l0.1,0.2c0,0,1.3,3.6,5.4,3.6c4.2,0,5.4-3.6,5.4-3.6l0.1-0.2
						l-0.1-0.2C652.1,293.1,650.8,289.5,646.7,289.5z M646.7,295.5c-1.2,0-2.2-1-2.2-2.2s1-2.2,2.2-2.2s2.2,1,2.2,2.2
						S647.9,295.5,646.7,295.5z"/>
					<path class="st2" d="M646.7,292.2c-0.6,0-1.1,0.5-1.1,1.1s0.5,1.1,1.1,1.1s1.1-0.5,1.1-1.1S647.3,292.2,646.7,292.2z"/>
				</g>
				<text transform="matrix(1 0 0 1 641.2499 287.0509)" class="st2 st3 st46">detect</text>
				<g id="ignore_icon" class="st47">
					<path class="st2" d="M679.4,290c0-0.9-1.6-1.8-3.5-1.8s-3.5,0.8-3.5,1.8v0.9c0,0.9,1.6,1.8,3.5,1.8s3.5-0.8,3.5-1.8V290z
						 M675.9,295.7c-1.9,0-3.5-0.8-3.5-1.8v1.3c0,0.9,1.6,1.8,3.5,1.8s3.5-0.8,3.5-1.8v-1.3C679.4,294.9,677.8,295.7,675.9,295.7z"
						/>
					<path class="st2" d="M679.4,291.7c0,0.9-1.6,1.8-3.5,1.8s-3.5-0.8-3.5-1.8v1.3c0,0.9,1.6,1.8,3.5,1.8s3.5-0.8,3.5-1.8V291.7z"
						/>
					<circle class="st37" cx="678" cy="295.2" r="1.9"/>
					<path d="M679.2,296.3l-0.2,0.2c-0.1,0.1-0.2,0.1-0.2,0l-2.1-2.1c-0.1-0.1-0.1-0.2,0-0.2l0.2-0.2c0.1-0.1,0.2-0.1,0.2,0l2.1,2.1
						C679.3,296.1,679.3,296.2,679.2,296.3z"/>
					<path d="M679,293.9l0.2,0.2c0.1,0.1,0.1,0.2,0,0.2l-2.1,2.1c-0.1,0.1-0.2,0.1-0.2,0l-0.2-0.2c-0.1-0.1-0.1-0.2,0-0.2l2.1-2.1
						C678.9,293.9,679,293.9,679,293.9z"/>
				</g>
				<text transform="matrix(1 0 0 1 670.6993 287.2365)" class="st48 st3 st46">ignore</text>
				<text transform="matrix(1 0 0 1 657.7657 287.2365)" class="st48 st3 st46">stop</text>
				<path id="stop_icon" class="st48" d="M659.2,292.7l-2-2c-0.8,0.9-1.1,1.7-1.1,1.7l-0.1,0.2l0.1,0.2c0,0,1.2,3.5,5.2,3.5
					c0.5,0,0.9-0.1,1.3-0.1l-1.4-1.4C660.1,294.7,659.3,293.8,659.2,292.7L659.2,292.7z M661.3,289c-1,0-1.8,0.2-2.4,0.5l-1.9-1.9
					l-0.7,0.7l9.4,9.4l0.7-0.7l-1.7-1.7c1.4-1,1.9-2.4,1.9-2.4l0.1-0.2l-0.1-0.2C666.5,292.4,665.3,289,661.3,289z M662.3,292.9
					c0.1-0.4,0-0.7-0.3-1s-0.7-0.4-1-0.3l-0.8-0.8c0.3-0.2,0.7-0.3,1.1-0.3c1.1,0,2.1,0.9,2.1,2.1c0,0.4-0.1,0.7-0.3,1.1
					L662.3,292.9L662.3,292.9z"/>
			</g>
			<text transform="matrix(1 0 0 1 640.4999 276.5179)" class="st2 st3 st49">traps </text>
			<g id="btn_show">
				<path id="button_show_bg" class="st50" d="M680.5,278.4h-12.7c-0.8,0-1.5-0.6-1.5-1.5v-1.8c0-0.8,0.6-1.5,1.5-1.5h12.7
					c0.8,0,1.5,0.6,1.5,1.5v1.8C681.9,277.8,681.3,278.4,680.5,278.4z"/>
				<text transform="matrix(1 0 0 1 667.6841 277.2717)" class="st2 st3 st51">Show all</text>
			</g>
			<path class="st22" d="M650.6,278.2h-12v-6.7h16.3v2.5C654.9,276.3,653,278.2,650.6,278.2z"/>
		</g>
		<g id="tasks_monitor_group">
			<text transform="matrix(1 0 0 1 576.3087 276.5877)" class="st2 st3 st49">tasks</text>
			<text transform="matrix(1 0 0 1 578.3976 286.4063)" class="st11 st23 st24">survey area_1</text>
			<path class="st22" d="M587.4,278.3h-12v-6.7h16.3v2.5C591.6,276.4,589.7,278.3,587.4,278.3z"/>
			<text transform="matrix(1 0 0 1 578.6696 294.4065)" class="st21 st23 st24">identify T2</text>
			<g id="btn_add_task">
				<path id="button_show_bg_00000080204040175633691090000000765764108045519542_" class="st50" d="M634.5,278.4h-12.7
					c-0.8,0-1.5-0.6-1.5-1.5v-1.8c0-0.8,0.6-1.5,1.5-1.5h12.7c0.8,0,1.5,0.6,1.5,1.5v1.8C635.9,277.8,635.3,278.4,634.5,278.4z"/>
				<text transform="matrix(1 0 0 1 621.6666 277.2718)" class="st2 st3 st51">Add</text>
				<path id="task_add_00000098179230359501329880000011325903290281144988_" class="st52" d="M633,276h-0.6 M632.4,276h-0.6
					 M632.4,276v-0.5 M632.4,276v0.5 M633.4,277.7h-2.1c-0.4,0-0.8-0.3-0.8-0.7v-1.9c0-0.4,0.4-0.7,0.8-0.7h2.1
					c0.4,0,0.8,0.3,0.8,0.7v1.9C634.2,277.4,633.8,277.7,633.4,277.7z"/>
			</g>
		</g>
	</g>
	<g id="strip_00000040554081310002002560000000584072213681466534_">
		<path id="strip_bg_00000071541829502204519250000011420770664429189555_" class="st22" d="M681.8,363.9H526.3
			c-1.9,0-3.4-2.1-3.4-4.6v-19.7c0-2.6,1.6-4.6,3.4-4.6h35.1h120.3c1.9,0,3.4,2.1,3.4,4.6v19.7C685.2,361.8,683.7,363.9,681.8,363.9
			z"/>
		
			<text id="strip_label_00000104671212298617379490000008406790099060746369_" transform="matrix(1 0 0 1 527.2342 343.9266)" class="st2 st42 st43">agilex 2</text>
		<line class="st22" x1="575.5" y1="363.9" x2="575.2" y2="335.3"/>
		<line class="st22" x1="638.6" y1="363.7" x2="638.6" y2="335.3"/>
		<g id="strip_icon_00000096749500409041240490000016126674825298994084_">
			<rect x="526.2" y="351.7" pointer-events="none" class="st45" width="22.1" height="4.6"/>
			<ellipse pointer-events="none" class="st45" cx="530.8" cy="357.9" rx="1.8" ry="1.7"/>
			<ellipse pointer-events="none" class="st45" cx="543.7" cy="357.9" rx="1.8" ry="1.7"/>
		</g>
		<g id="trap_00000066481366200165216920000018297345027049553059_">
			<g id="trap_detection_selector_00000011018819635163485300000007824681449890771612_">
				<g id="detect_icon_00000149366873047282532950000001539533625021920159_">
					<path class="st2" d="M646.6,353.4c-4.2,0-5.4,3.6-5.4,3.6l-0.1,0.2l0.1,0.2c0,0,1.3,3.6,5.4,3.6c4.2,0,5.4-3.6,5.4-3.6l0.1-0.2
						L652,357C652,357,650.7,353.4,646.6,353.4z M646.6,359.4c-1.2,0-2.2-1-2.2-2.2s1-2.2,2.2-2.2s2.2,1,2.2,2.2
						S647.8,359.4,646.6,359.4z"/>
					<path class="st2" d="M646.6,356.1c-0.6,0-1.1,0.5-1.1,1.1s0.5,1.1,1.1,1.1s1.1-0.5,1.1-1.1S647.2,356.1,646.6,356.1z"/>
				</g>
				<text transform="matrix(1 0 0 1 641.0999 350.9081)" class="st2 st3 st46">detect</text>
				<g id="ignore_icon_00000036930800996311232980000000350666308283926710_" class="st47">
					<path class="st2" d="M679.3,353.9c0-0.9-1.6-1.8-3.5-1.8s-3.5,0.8-3.5,1.8v0.9c0,0.9,1.6,1.8,3.5,1.8s3.5-0.8,3.5-1.8V353.9z
						 M675.8,359.6c-1.9,0-3.5-0.8-3.5-1.8v1.3c0,0.9,1.6,1.8,3.5,1.8s3.5-0.8,3.5-1.8v-1.3C679.3,358.8,677.7,359.6,675.8,359.6z"
						/>
					<path class="st2" d="M679.3,355.7c0,0.9-1.6,1.8-3.5,1.8s-3.5-0.8-3.5-1.8v1.3c0,0.9,1.6,1.8,3.5,1.8s3.5-0.8,3.5-1.8V355.7z"
						/>
					<circle class="st37" cx="677.9" cy="359.1" r="1.9"/>
					<path d="M679.1,360.2l-0.2,0.2c-0.1,0.1-0.2,0.1-0.2,0l-2.1-2.1c-0.1-0.1-0.1-0.2,0-0.2l0.2-0.2c0.1-0.1,0.2-0.1,0.2,0l2.1,2.1
						C679.2,360,679.2,360.1,679.1,360.2z"/>
					<path d="M678.9,357.9l0.2,0.2c0.1,0.1,0.1,0.2,0,0.2l-2.1,2.1c-0.1,0.1-0.2,0.1-0.2,0l-0.2-0.2c-0.1-0.1-0.1-0.2,0-0.2l2.1-2.1
						C678.8,357.8,678.9,357.8,678.9,357.9z"/>
				</g>
				<text transform="matrix(1 0 0 1 670.5493 351.0937)" class="st48 st3 st46">ignore</text>
				<text transform="matrix(1 0 0 1 657.6157 351.0937)" class="st48 st3 st46">stop</text>
				<path id="stop_icon_00000066498372925186775390000012578976442364663208_" class="st48" d="M659.1,356.7l-2-2
					c-0.8,0.9-1.1,1.7-1.1,1.7l-0.1,0.2l0.1,0.2c0,0,1.2,3.5,5.2,3.5c0.5,0,0.9-0.1,1.3-0.1l-1.4-1.4
					C660,358.6,659.2,357.7,659.1,356.7L659.1,356.7z M661.2,352.9c-1,0-1.8,0.2-2.4,0.5l-1.9-1.9l-0.7,0.7l9.4,9.4l0.7-0.7
					l-1.7-1.7c1.4-1,1.9-2.4,1.9-2.4l0.1-0.2l-0.1-0.2C666.4,356.4,665.2,352.9,661.2,352.9z M662.2,356.9c0.1-0.4,0-0.7-0.3-1
					s-0.7-0.4-1-0.3l-0.8-0.8c0.3-0.2,0.7-0.3,1.1-0.3c1.1,0,2.1,0.9,2.1,2.1c0,0.4-0.1,0.7-0.3,1.1L662.2,356.9L662.2,356.9z"/>
			</g>
			<text transform="matrix(1 0 0 1 640.3499 340.3752)" class="st2 st3 st49">traps </text>
			<g id="btn_show_00000175294806655240908950000009657108288221646521_">
				<path id="button_show_bg_00000015332294766247919400000015623348603898854847_" class="st50" d="M680.4,342.4h-12.7
					c-0.8,0-1.5-0.6-1.5-1.5v-1.8c0-0.8,0.6-1.5,1.5-1.5h12.7c0.8,0,1.5,0.6,1.5,1.5v1.8C681.8,341.7,681.2,342.4,680.4,342.4z"/>
				<text transform="matrix(1 0 0 1 667.5341 341.1289)" class="st2 st3 st51">Show all</text>
			</g>
		</g>
		<path id="status_error_00000150101493863775900720000011824476033765573798_" class="st6" d="M565,336.9c-2.9,0-5.3,2.3-5.3,5.3
			c0,2.9,2.3,5.3,5.3,5.3c2.9,0,5.3-2.4,5.3-5.3C570.2,339.3,567.9,336.9,565,336.9z M567.8,344.2L567,345l-2-2l-2,2l-0.8-0.8l2-2
			l-2-2l0.8-0.8l2,2l2-2l0.8,0.8l-2,2L567.8,344.2z"/>
		<path id="ctrl_manual_00000083060504196927379610000006535632259058443952_" class="st53" d="M562.9,359v-1h4.1v1 M565.6,355.3
			v2.7 M564.3,355.3v2.7 M567,353.2c0,1.1-0.9,2-2,2s-2-0.9-2-2s0.9-2,2-2S567,352.2,567,353.2z M569,361.4h-8.1
			c-0.4,0-0.7-0.3-0.7-0.7V360c0-0.4,0.3-0.7,0.7-0.7h8.1c0.4,0,0.7,0.3,0.7,0.7v0.7C569.7,361,569.4,361.4,569,361.4z"/>
		<g id="tasks_monitor_group_00000078761703179892849430000003747261989339170447_">
			<text transform="matrix(1 0 0 1 576.3087 340.04)" class="st2 st3 st49">tasks</text>
			<text transform="matrix(1 0 0 1 578.3976 349.8586)" class="st11 st23 st24">goto T123</text>
			<path class="st22" d="M587.4,341.8h-12V335h16.3v2.5C591.6,339.9,589.7,341.8,587.4,341.8z"/>
			<text transform="matrix(1 0 0 1 578.6696 357.8588)" class="st5 st23 st24">goto T124</text>
		</g>
		<g id="btn_add_task_00000163789190469133164170000011491286617896797597_">
			<path id="button_show_bg_00000153663103501122521640000000249201419074965942_" class="st50" d="M634.5,341.8h-12.7
				c-0.8,0-1.5-0.6-1.5-1.5v-1.8c0-0.8,0.6-1.5,1.5-1.5h12.7c0.8,0,1.5,0.6,1.5,1.5v1.8C635.9,341.2,635.3,341.8,634.5,341.8z"/>
			<text transform="matrix(1 0 0 1 621.6666 340.6343)" class="st2 st3 st51">Add</text>
			<path id="task_add_00000105408921510413973970000002330569479142192047_" class="st52" d="M633,339.4h-0.6 M632.4,339.4h-0.6
				 M632.4,339.4v-0.5 M632.4,339.4v0.5 M633.4,341.1h-2.1c-0.4,0-0.8-0.3-0.8-0.7v-1.9c0-0.4,0.4-0.7,0.8-0.7h2.1
				c0.4,0,0.8,0.3,0.8,0.7v1.9C634.2,340.7,633.8,341.1,633.4,341.1z"/>
		</g>
	</g>
	<g id="strip_00000047047923996548621980000009436405885772144293_">
		<path id="strip_bg_00000119076533927173353960000017910456514872278919_" class="st22" d="M681.8,332H526.3
			c-1.9,0-3.4-2.1-3.4-4.6v-19.7c0-2.6,1.6-4.6,3.4-4.6h35.1h120.3c1.9,0,3.4,2.1,3.4,4.6v19.7C685.2,329.9,683.7,332,681.8,332z"/>
		
			<text id="strip_label_00000005243956833175422400000000820294485681381813_" transform="matrix(1 0 0 1 527.2342 312.0014)" class="st2 st42 st43">agilex 1</text>
		<line class="st22" x1="575.5" y1="332" x2="575.2" y2="303.4"/>
		<line class="st22" x1="638.6" y1="331.7" x2="638.6" y2="303.4"/>
		<g id="strip_icon_00000035496772787072263650000001018606515643290780_">
			<rect x="526.2" y="319.8" pointer-events="none" class="st45" width="22.1" height="4.6"/>
			<ellipse pointer-events="none" class="st45" cx="530.8" cy="326" rx="1.8" ry="1.7"/>
			<ellipse pointer-events="none" class="st45" cx="543.7" cy="326" rx="1.8" ry="1.7"/>
		</g>
		<g id="trap_00000123436726055518604450000012728914654296340405_">
			<g id="trap_detection_selector_00000139981414290780443230000004219748928798722437_">
				<g id="detect_icon_00000167385828659766193960000011961647233271730341_">
					<path class="st2" d="M646.7,321.1c-4.2,0-5.4,3.6-5.4,3.6l-0.1,0.2l0.1,0.2c0,0,1.3,3.6,5.4,3.6c4.2,0,5.4-3.6,5.4-3.6l0.1-0.2
						l-0.1-0.2C652.1,324.7,650.8,321.1,646.7,321.1z M646.7,327.1c-1.2,0-2.2-1-2.2-2.2s1-2.2,2.2-2.2s2.2,1,2.2,2.2
						S647.9,327.1,646.7,327.1z"/>
					<path class="st2" d="M646.7,323.8c-0.6,0-1.1,0.5-1.1,1.1s0.5,1.1,1.1,1.1s1.1-0.5,1.1-1.1S647.3,323.8,646.7,323.8z"/>
				</g>
				<text transform="matrix(1 0 0 1 641.2195 318.5829)" class="st2 st3 st46">detect</text>
				<g id="ignore_icon_00000001631226906621189110000003412008206306428051_" class="st47">
					<path class="st2" d="M679.4,321.6c0-0.9-1.6-1.8-3.5-1.8s-3.5,0.8-3.5,1.8v0.9c0,0.9,1.6,1.8,3.5,1.8s3.5-0.8,3.5-1.8V321.6z
						 M675.9,327.3c-1.9,0-3.5-0.8-3.5-1.8v1.3c0,0.9,1.6,1.8,3.5,1.8s3.5-0.8,3.5-1.8v-1.3C679.4,326.5,677.8,327.3,675.9,327.3z"
						/>
					<path class="st2" d="M679.4,323.3c0,0.9-1.6,1.8-3.5,1.8s-3.5-0.8-3.5-1.8v1.3c0,0.9,1.6,1.8,3.5,1.8s3.5-0.8,3.5-1.8V323.3z"
						/>
					<circle class="st37" cx="678" cy="326.8" r="1.9"/>
					<path d="M679.2,327.9l-0.2,0.2c-0.1,0.1-0.2,0.1-0.2,0l-2.1-2.1c-0.1-0.1-0.1-0.2,0-0.2l0.2-0.2c0.1-0.1,0.2-0.1,0.2,0l2.1,2.1
						C679.3,327.7,679.3,327.8,679.2,327.9z"/>
					<path d="M679,325.6l0.2,0.2c0.1,0.1,0.1,0.2,0,0.2l-2.1,2.1c-0.1,0.1-0.2,0.1-0.2,0l-0.2-0.2c-0.1-0.1-0.1-0.2,0-0.2l2.1-2.1
						C678.9,325.5,679,325.5,679,325.6z"/>
				</g>
				<text transform="matrix(1 0 0 1 670.6689 318.7684)" class="st48 st3 st46">ignore</text>
				<text transform="matrix(1 0 0 1 657.7353 318.7684)" class="st48 st3 st46">stop</text>
				<path id="stop_icon_00000057857078299303420830000018219841381192974261_" class="st48" d="M659.2,324.4l-2-2
					c-0.8,0.9-1.1,1.7-1.1,1.7l-0.1,0.2l0.1,0.2c0,0,1.2,3.5,5.2,3.5c0.5,0,0.9-0.1,1.3-0.1l-1.4-1.4
					C660.1,326.3,659.3,325.4,659.2,324.4L659.2,324.4z M661.3,320.6c-1,0-1.8,0.2-2.4,0.5l-1.9-1.9l-0.7,0.7l9.4,9.4l0.7-0.7
					l-1.7-1.7c1.4-1,1.9-2.4,1.9-2.4l0.1-0.2l-0.1-0.2C666.5,324.1,665.3,320.6,661.3,320.6z M662.3,324.5c0.1-0.4,0-0.7-0.3-1
					s-0.7-0.4-1-0.3l-0.8-0.8c0.3-0.2,0.7-0.3,1.1-0.3c1.1,0,2.1,0.9,2.1,2.1c0,0.4-0.1,0.7-0.3,1.1L662.3,324.5L662.3,324.5z"/>
			</g>
			<text transform="matrix(1 0 0 1 640.4695 308.0499)" class="st2 st3 st49">traps </text>
			<g id="btn_show_00000057107759960244076010000011505359259861372554_">
				<path id="button_show_bg_00000163763320848741732760000001712124147614491807_" class="st50" d="M680.5,310.1h-12.7
					c-0.8,0-1.5-0.6-1.5-1.5v-1.8c0-0.8,0.6-1.5,1.5-1.5h12.7c0.8,0,1.5,0.6,1.5,1.5v1.8C681.9,309.4,681.3,310.1,680.5,310.1z"/>
				<text transform="matrix(1 0 0 1 667.6537 308.8037)" class="st2 st3 st51">Show all</text>
			</g>
		</g>
		<path id="status_warning_00000154383463179312906460000003871947799280575907_" class="st7" d="M564.9,305.1c-3,0-5.4,2.4-5.4,5.4
			s2.4,5.4,5.4,5.4s5.5-2.4,5.5-5.4C570.4,307.6,567.9,305.1,564.9,305.1z M565.6,313.5h-1.3v-3.6h1.3V313.5z M565.6,309h-1.3v-1.3
			h1.3V309z"/>
		<path id="ctrl_wait_00000075140932433895790390000004201973536593438608_" class="st2" d="M570.1,324.2c0,0.2-0.2,0.5-0.5,0.5
			c-0.2,0-0.5-0.2-0.5-0.5c0-2.5-2-4.5-4.5-4.5c-0.2,0-0.5-0.2-0.5-0.5s0.2-0.5,0.5-0.5C567.7,318.9,570.1,321.3,570.1,324.2z
			 M566.5,324.7c0.2,0,0.5-0.2,0.5-0.5s-0.2-0.5-0.5-0.5h-1c-0.1-0.1-0.2-0.2-0.3-0.3V322c0-0.2-0.2-0.5-0.5-0.5
			c-0.2,0-0.5,0.2-0.5,0.5v1.5c-0.4,0.2-0.6,0.8-0.3,1.2c0.2,0.4,0.8,0.6,1.2,0.3c0.1-0.1,0.2-0.2,0.3-0.3L566.5,324.7L566.5,324.7z
			 M560.2,321.9c-0.2,0-0.5,0.2-0.5,0.5c0,0.2,0.2,0.5,0.5,0.5c0.2,0,0.5-0.2,0.5-0.5C560.6,322.1,560.4,321.9,560.2,321.9
			L560.2,321.9z M560.3,324.2c0-0.2-0.2-0.5-0.5-0.5c-0.2,0-0.5,0.2-0.5,0.5s0.2,0.5,0.5,0.5S560.3,324.5,560.3,324.2z M564.7,328.7
			c-0.2,0-0.5,0.2-0.5,0.5s0.2,0.5,0.5,0.5c0.2,0,0.5-0.2,0.5-0.5S565,328.7,564.7,328.7z M561.3,320.3c-0.2,0-0.5,0.2-0.5,0.5
			s0.2,0.5,0.5,0.5c0.2,0,0.5-0.2,0.5-0.5l0,0C561.7,320.5,561.5,320.3,561.3,320.3z M562.8,319.2c-0.2,0-0.5,0.2-0.5,0.5
			s0.2,0.5,0.5,0.5s0.5-0.2,0.5-0.5l0,0C563.3,319.4,563.1,319.2,562.8,319.2z M560.2,325.7c-0.2,0-0.5,0.2-0.5,0.5s0.2,0.5,0.5,0.5
			c0.2,0,0.5-0.2,0.5-0.5S560.4,325.7,560.2,325.7L560.2,325.7z M561.3,327.3c-0.2,0-0.5,0.2-0.5,0.5s0.2,0.5,0.5,0.5
			c0.2,0,0.5-0.2,0.5-0.5S561.5,327.3,561.3,327.3z M562.8,328.3c-0.2,0-0.5,0.2-0.5,0.5s0.2,0.5,0.5,0.5s0.5-0.2,0.5-0.5
			S563.1,328.3,562.8,328.3L562.8,328.3z M569.3,325.7c-0.2,0-0.5,0.2-0.5,0.5s0.2,0.5,0.5,0.5c0.2,0,0.5-0.2,0.5-0.5
			S569.5,325.7,569.3,325.7L569.3,325.7z M568.2,327.3c-0.2,0-0.5,0.2-0.5,0.5s0.2,0.5,0.5,0.5c0.2,0,0.5-0.2,0.5-0.5
			S568.5,327.3,568.2,327.3z M566.6,328.3c-0.2,0-0.5,0.2-0.5,0.5s0.2,0.5,0.5,0.5c0.2,0,0.5-0.2,0.5-0.5S566.9,328.3,566.6,328.3
			L566.6,328.3z"/>
		<g id="tasks_monitor_group_00000052824233119990395280000016995192733092753280_">
			<text transform="matrix(1 0 0 1 576.3088 308.0499)" class="st2 st3 st49">tasks</text>
			<text transform="matrix(1 0 0 1 578.3976 317.7325)" class="st6 st23 st24">goto T126</text>
			<path class="st22" d="M587.4,309.9h-12v-6.7h16.3v2.5C591.6,308,589.7,309.9,587.4,309.9z"/>
			<text transform="matrix(1 0 0 1 578.6696 325.7327)" class="st21 st23 st24">goto T124</text>
		</g>
		<path class="st22" d="M650.7,309.9h-12v-6.7h16.3v2.5C654.9,308,653,309.9,650.7,309.9z"/>
		<g id="btn_add_task_00000016792563772572663830000012006044405973467818_">
			<path id="button_show_bg_00000004538626246290310140000005833295513192547514_" class="st50" d="M634.5,310.1h-12.7
				c-0.8,0-1.5-0.6-1.5-1.5v-1.8c0-0.8,0.6-1.5,1.5-1.5h12.7c0.8,0,1.5,0.6,1.5,1.5v1.8C635.9,309.5,635.3,310.1,634.5,310.1z"/>
			<text transform="matrix(1 0 0 1 621.6666 308.8913)" class="st2 st3 st51">Add</text>
			<path id="task_add_00000103984784226330979650000000601190148057498004_" class="st52" d="M633,307.7h-0.6 M632.4,307.7h-0.6
				 M632.4,307.7v-0.5 M632.4,307.7v0.5 M633.4,309.3h-2.1c-0.4,0-0.8-0.3-0.8-0.7v-1.9c0-0.4,0.4-0.7,0.8-0.7h2.1
				c0.4,0,0.8,0.3,0.8,0.7v1.9C634.2,309,633.8,309.3,633.4,309.3z"/>
		</g>
	</g>
	<path id="group_col" class="st54" d="M624.8,243.4h-96.2c-4.7,0-8.5,3.9-8.5,8.6v15.6h104.7V243.4L624.8,243.4z"/>
	
		<linearGradient id="name_bg_00000008835693710139412200000000247929922443860363_" gradientUnits="userSpaceOnUse" x1="649.0354" y1="-675.6484" x2="649.0354" y2="-651.2493" gradientTransform="matrix(1 0 0 -1 0 -408)">
		<stop  offset="0" style="stop-color:#BCBCBB"/>
		<stop  offset="0.791" style="stop-color:#ACACAC"/>
		<stop  offset="1" style="stop-color:#E8E7E7"/>
	</linearGradient>
	<path id="name_bg" style="fill:url(#name_bg_00000008835693710139412200000000247929922443860363_);" d="M613.5,267.6v-15.3
		c0-5.9,0-5.9,0-9.1l67.4,0c3-0.2,3.6,3.1,3.6,7v17.4H613.5L613.5,267.6z"/>
	<text id="op_name" transform="matrix(0.9827 0 0 1 617.1597 260.3288)" class="st56 st57 st58">Christophe</text>
	<text id="op_id" transform="matrix(0.9827 0 0 1 524.4517 260.3288)" class="st2 st59 st58">OP-Systeme 1</text>
	<text transform="matrix(1 0 0 1 929.3384 77.2358)" class="st2 st3 st33">Planification</text>
	<rect x="902" y="109.8" class="st2" width="608.5" height="19.8"/>
	<rect x="902" y="146.1" class="st2" width="608.5" height="19.8"/>
	<rect x="902" y="190.1" class="st2" width="608.5" height="19.8"/>
	<rect x="902" y="234" class="st2" width="608.5" height="19.8"/>
	<rect x="902" y="274.7" class="st2" width="608.5" height="19.8"/>
</g>
<polyline class="st60" points="756.3,473.4 761.7,478.9 772.9,467.4 "/>
</svg>
